<svg width="146" height="31" viewBox="0 0 146 31" fill="none" xmlns="http://www.w3.org/2000/svg">
<g clip-path="url(#clip0_2_84)">
<path d="M14.5074 29.7181C14.3209 29.7181 14.1683 29.5672 14.1683 29.3827V17.4225H10.0986C8.72508 17.4225 7.65679 18.0767 7.24982 19.1671C6.85981 20.2071 7.14808 21.3645 8.01288 22.1026C8.91161 22.891 10.3869 22.8071 11.2856 21.9181C11.6586 21.549 11.8791 20.9787 11.8452 20.4419C11.8282 20.0897 11.7095 19.5697 11.2008 19.1671C10.8617 18.8819 10.3699 18.7477 9.91207 18.7813C9.64076 18.8148 9.25075 18.9155 8.96248 19.2677C8.80986 19.469 8.72508 19.7374 8.75899 20.0226C8.79291 20.3245 8.92856 20.5761 9.13205 20.7271C9.3864 20.9284 9.67467 21.0123 9.91207 20.9284C10.0816 20.8781 10.2173 20.7271 10.2682 20.5258C10.319 20.3413 10.5056 20.2406 10.6751 20.291C10.8617 20.3413 10.9634 20.5258 10.9125 20.6935C10.7938 21.1129 10.5056 21.4316 10.1156 21.5658C9.67467 21.7168 9.13205 21.5994 8.70812 21.2471C8.36898 20.9787 8.14854 20.5593 8.09767 20.0897C8.0468 19.62 8.18245 19.1671 8.45377 18.8316C8.80986 18.4122 9.30162 18.1438 9.8612 18.0935C10.4886 18.0264 11.1838 18.2445 11.6417 18.6303C12.1843 19.0664 12.4895 19.7039 12.5235 20.3916C12.5574 21.1297 12.2691 21.8677 11.7604 22.371C10.6073 23.5116 8.72508 23.6123 7.55504 22.589C6.48675 21.6665 6.1137 20.2071 6.60545 18.8987C7.13112 17.5232 8.43681 16.718 10.0986 16.718H14.5074C14.694 16.718 14.8466 16.869 14.8466 17.0535V29.3491C14.8466 29.5672 14.694 29.7181 14.5074 29.7181Z" fill="white"/>
<path d="M17.1738 29.7179C16.9873 29.7179 16.8347 29.5669 16.8347 29.3824V21.5488C16.8347 21.3643 16.9873 21.2133 17.1738 21.2133C17.3603 21.2133 17.5129 21.3643 17.5129 21.5488V29.3824C17.5129 29.5669 17.3603 29.7179 17.1738 29.7179Z" fill="white"/>
<path d="M21.9693 29.7179C21.7827 29.7179 21.6301 29.5669 21.6301 29.3824V21.5488C21.6301 21.3643 21.7827 21.2133 21.9693 21.2133C22.1558 21.2133 22.3084 21.3643 22.3084 21.5488V29.3824C22.3084 29.5669 22.1558 29.7179 21.9693 29.7179Z" fill="white"/>
<path d="M19.5802 29.7179C19.3937 29.7179 19.2411 29.5669 19.2411 29.3824V21.5488C19.2411 21.3643 19.3937 21.2133 19.5802 21.2133C19.7668 21.2133 19.9194 21.3643 19.9194 21.5488V29.3824C19.9194 29.5669 19.7668 29.7179 19.5802 29.7179Z" fill="white"/>
<path d="M21.9726 19.7053H17.1738C16.9873 19.7053 16.8347 19.5543 16.8347 19.3698C16.8347 19.1853 16.9873 19.0343 17.1738 19.0343H21.9726C22.1592 19.0343 22.3118 19.1853 22.3118 19.3698C22.3118 19.5543 22.1592 19.7053 21.9726 19.7053Z" fill="white"/>
<path d="M21.9726 17.5399H17.1738C16.9873 17.5399 16.8347 17.3889 16.8347 17.2044C16.8347 17.0199 16.9873 16.8689 17.1738 16.8689H21.9726C22.1592 16.8689 22.3118 17.0199 22.3118 17.2044C22.3118 17.3889 22.1592 17.5399 21.9726 17.5399Z" fill="white"/>
<path d="M35.4119 15.4448H3.71927C3.53274 15.4448 3.38013 15.2938 3.38013 15.1093C3.38013 14.9248 3.53274 14.7738 3.71927 14.7738H35.4119C35.5985 14.7738 35.7511 14.9248 35.7511 15.1093C35.7511 15.2938 35.5985 15.4448 35.4119 15.4448Z" fill="white"/>
<path d="M24.8139 29.7202C24.6273 29.7202 24.4747 29.5693 24.4747 29.3847V17.0724C24.4747 16.8878 24.6273 16.7369 24.8139 16.7369H29.2227C30.8845 16.7369 32.1902 17.5588 32.7158 18.9175C33.2076 20.2259 32.8345 21.6685 31.7663 22.6079C30.5962 23.6144 28.714 23.5137 27.5609 22.3898C27.0522 21.8866 26.7639 21.1485 26.7978 20.4105C26.8318 19.7227 27.1539 19.0853 27.6796 18.6492C28.1544 18.2633 28.8327 18.0621 29.4601 18.1124C30.0366 18.1627 30.5284 18.4143 30.8675 18.8504C31.1388 19.1859 31.2745 19.6388 31.2236 20.1085C31.1728 20.5782 30.9523 20.9976 30.6132 21.266C30.1723 21.6182 29.6466 21.7356 29.2057 21.5847C28.8157 21.4505 28.5275 21.1485 28.4088 20.7124C28.3579 20.5279 28.4596 20.3434 28.6462 20.3098C28.8327 20.2595 29.0192 20.3601 29.0531 20.5447C29.104 20.7459 29.2227 20.8801 29.4092 20.9472C29.6466 21.0143 29.9349 20.9472 30.1893 20.7459C30.3927 20.595 30.5284 20.3266 30.5623 20.0414C30.5962 19.7563 30.5114 19.4711 30.3588 19.2866C30.0536 18.9175 29.6805 18.8169 29.4092 18.8001C28.9514 18.7498 28.4596 18.9008 28.1205 19.1859C27.6118 19.6053 27.4931 20.1085 27.4761 20.4608C27.4422 20.9976 27.6627 21.5679 28.0357 21.9369C28.9344 22.826 30.4097 22.9098 31.3084 22.1214C32.1732 21.3834 32.4615 20.2259 32.0715 19.1859C31.6476 18.0956 30.5962 17.4414 29.2227 17.4414H25.153V29.4015C25.153 29.5693 25.0004 29.7202 24.8139 29.7202Z" fill="white"/>
<path d="M18.3816 9.71877C18.2798 9.71877 18.195 9.68522 18.1272 9.60135C12.8366 3.47871 6.0538 4.25033 4.66333 4.50195V7.40391C4.66333 7.58843 4.51071 7.7394 4.32419 7.7394C4.13766 7.7394 3.98505 7.58843 3.98505 7.40391V4.21678C3.98505 4.06581 4.08679 3.93162 4.2394 3.89807C4.32419 3.8813 6.32512 3.41161 9.10607 3.83097C11.6666 4.21678 15.4141 5.44131 18.6359 9.18199C18.7546 9.31619 18.7377 9.53426 18.602 9.65168C18.5342 9.702 18.4663 9.71877 18.3816 9.71877Z" fill="white"/>
<path d="M19.5913 9.41582C19.4048 9.41582 19.2521 9.26485 19.2521 9.08033V8.19129C16.0642 1.58219 9.43403 1.2467 7.9079 1.2467V3.82995C7.9079 4.01447 7.75528 4.16544 7.56875 4.16544C7.38223 4.16544 7.22961 4.01447 7.22961 3.82995V0.927988C7.22961 0.760244 7.36527 0.609275 7.53484 0.5925C7.61963 0.5925 9.70534 0.441531 12.2828 1.26347C14.6568 2.0351 17.9125 3.81318 19.8796 7.95645C19.8965 8.00677 19.9135 8.05709 19.9135 8.10741V9.08033C19.9304 9.26485 19.7778 9.41582 19.5913 9.41582Z" fill="white"/>
<path d="M1.6813 11.4456C1.49478 11.4456 1.34216 11.2946 1.34216 11.1101V7.87262C1.34216 7.72165 1.46086 7.57068 1.61348 7.53713C1.98653 7.45326 10.7194 5.70873 17.4683 9.66748C17.6379 9.76812 17.6887 9.96942 17.587 10.1204C17.4852 10.2881 17.2818 10.3385 17.1292 10.2378C11.262 6.78229 3.56353 7.87262 2.0374 8.14101V11.0933C2.02044 11.2946 1.86783 11.4456 1.6813 11.4456Z" fill="white"/>
<path d="M20.7709 9.72181C20.6861 9.72181 20.6183 9.68827 20.5505 9.63794C20.4148 9.52052 20.3979 9.30246 20.5166 9.16826C23.7384 5.44435 27.4859 4.20305 30.0464 3.81724C32.8274 3.39788 34.8283 3.86756 34.9131 3.88434C35.0657 3.91789 35.1674 4.05208 35.1674 4.20305V7.3734C35.1674 7.55792 35.0148 7.70889 34.8283 7.70889C34.6418 7.70889 34.4892 7.55792 34.4892 7.3734V4.50499C33.0817 4.27015 26.3159 3.49853 21.0253 9.60439C20.9575 9.68827 20.8727 9.72181 20.7709 9.72181Z" fill="white"/>
<path d="M19.587 9.41959C19.4005 9.41959 19.2479 9.26862 19.2479 9.08411V8.11119C19.2479 8.06087 19.2648 8.01055 19.2818 7.96022C21.2488 3.81695 24.5045 2.03887 26.8785 1.26725C29.456 0.445308 31.5417 0.579503 31.6265 0.596277C31.7961 0.613051 31.9317 0.747246 31.9317 0.931764V3.83373C31.9317 4.01825 31.7791 4.16922 31.5926 4.16922C31.4061 4.16922 31.2534 4.01825 31.2534 3.83373V1.25048C29.7273 1.25048 23.0971 1.58596 19.9092 8.17829V9.06733C19.9261 9.26862 19.7735 9.41959 19.587 9.41959Z" fill="white"/>
<path d="M37.4944 11.448C37.3079 11.448 37.1553 11.297 37.1553 11.1125V8.16019C35.6291 7.8918 27.9306 6.80146 22.0635 10.257C21.8939 10.3576 21.6905 10.2905 21.6057 10.1396C21.5039 9.97182 21.5548 9.77052 21.7244 9.68665C28.4733 5.7279 37.2061 7.48921 37.5792 7.55631C37.7318 7.58986 37.8505 7.72405 37.8505 7.8918V11.1292C37.8335 11.297 37.6809 11.448 37.4944 11.448Z" fill="white"/>
<path d="M38.1024 13.0085H1.05134C0.474797 13.0085 0 12.5556 0 11.9852C0 11.4149 0.474797 10.9452 1.05134 10.9452H16.4653C16.6857 9.80457 17.9914 8.91553 19.5854 8.91553C21.1624 8.91553 22.485 9.80457 22.7055 10.9452H38.1194C38.6959 10.9452 39.1707 11.4149 39.1707 11.9852C39.1707 12.5556 38.6959 13.0085 38.1024 13.0085ZM1.05134 11.6162C0.847851 11.6162 0.678281 11.7672 0.678281 11.9852C0.678281 12.1865 0.847851 12.3543 1.05134 12.3543H38.1024C38.3059 12.3543 38.4755 12.1865 38.4755 11.9852C38.4755 11.7839 38.3059 11.6162 38.1024 11.6162H22.3833C22.1967 11.6162 22.0441 11.4652 22.0441 11.2807C22.0441 10.3413 20.9419 9.5865 19.5854 9.5865C18.2288 9.5865 17.1266 10.3413 17.1266 11.2807C17.1266 11.4652 16.974 11.6162 16.7875 11.6162H1.05134Z" fill="#F77761"/>
<path d="M46.4449 3.32516H48.8735V11.608H53.168V13.6235H46.4377L46.4449 3.32516Z" fill="white"/>
<path d="M56.8233 6.25941V13.6235H54.5087V6.25941H56.8233ZM56.8305 3.32516V5.43326H54.5016V3.32516H56.8305Z" fill="white"/>
<path d="M62.8284 13.7659C62.5007 13.7659 62.2111 13.7232 61.9595 13.6377C61.7078 13.5523 61.4894 13.436 61.3043 13.2888C61.1191 13.1368 60.9648 12.9612 60.8413 12.7617C60.7179 12.5576 60.6182 12.3416 60.5422 12.1137L60.2573 13.6235H58.5267V3.04028H60.9553V7.17814C61.055 7.00246 61.1784 6.85053 61.3256 6.72233C61.4776 6.58939 61.6461 6.48019 61.8313 6.39472C62.0212 6.30451 62.2206 6.23567 62.4295 6.18819C62.6384 6.14071 62.8568 6.11697 63.0847 6.11697C63.9916 6.11697 64.7014 6.4517 65.2142 7.12116C65.727 7.78588 65.9834 8.71173 65.9834 9.89872C65.9834 10.6774 65.8623 11.3563 65.6202 11.9356C65.378 12.5149 65.0219 12.9659 64.5519 13.2888C64.0866 13.6069 63.5121 13.7659 62.8284 13.7659ZM62.2728 12.0496C62.6574 12.0496 62.9779 11.8881 63.2343 11.5653C63.4954 11.2376 63.626 10.6774 63.626 9.88448C63.626 9.15804 63.4978 8.63814 63.2414 8.32477C62.9898 8.00666 62.6646 7.8476 62.2657 7.8476C61.9903 7.8476 61.7529 7.91882 61.5535 8.06126C61.3589 8.2037 61.2093 8.42685 61.1048 8.73072C61.0051 9.02984 60.9553 9.41443 60.9553 9.88448C60.9553 10.6821 61.0692 11.2424 61.2971 11.5653C61.525 11.8881 61.8503 12.0496 62.2728 12.0496Z" fill="white"/>
<path d="M67.2066 13.6235V6.25941H69.5426V8.14672C69.6565 7.76214 69.8203 7.41791 70.034 7.11404C70.2524 6.80542 70.5207 6.56328 70.8388 6.3876C71.1569 6.20718 71.5249 6.11697 71.9427 6.11697C71.9949 6.11697 72.04 6.11934 72.078 6.12409C72.1207 6.12409 72.1468 6.12884 72.1563 6.13833V8.43872C72.1326 8.42923 72.1017 8.42211 72.0637 8.41736C72.0305 8.41261 71.9949 8.41023 71.9569 8.41023C71.4916 8.36275 71.107 8.36988 70.8032 8.4316C70.504 8.49332 70.2666 8.59303 70.091 8.73072C69.92 8.86841 69.799 9.03222 69.7277 9.22214C69.6613 9.41206 69.628 9.61859 69.628 9.84175V13.6235H67.2066Z" fill="white"/>
<path d="M75.2488 13.7659C74.7883 13.7659 74.3657 13.6781 73.9811 13.5024C73.6013 13.322 73.2974 13.0609 73.0695 12.719C72.8463 12.3772 72.7348 11.9593 72.7348 11.4656C72.7348 10.6631 73.0434 10.0459 73.6606 9.61384C74.2826 9.18178 75.2536 8.96337 76.5735 8.95863L77.3213 8.9515V8.57404C77.3213 8.28441 77.2382 8.06838 77.072 7.92594C76.9106 7.77876 76.6542 7.70754 76.3029 7.71228C76.0607 7.71703 75.8138 7.77638 75.5622 7.89033C75.3105 7.99954 75.1301 8.2037 75.0209 8.50282H73.0339C73.0624 7.94731 73.2262 7.49388 73.5253 7.14253C73.8292 6.79118 74.2304 6.53241 74.7289 6.36623C75.2322 6.20006 75.7948 6.11697 76.4168 6.11697C77.2192 6.11697 77.8555 6.2143 78.3255 6.40897C78.7955 6.59888 79.1327 6.86714 79.3368 7.21375C79.541 7.5556 79.6431 7.95918 79.6431 8.42448V13.6235H77.6276L77.421 12.4056C77.1836 12.9232 76.8892 13.2793 76.5379 13.4739C76.1913 13.6686 75.7616 13.7659 75.2488 13.7659ZM76.0892 12.2062C76.2506 12.2062 76.4049 12.1777 76.5521 12.1208C76.6993 12.0638 76.8299 11.9855 76.9438 11.8857C77.0578 11.7813 77.148 11.6673 77.2145 11.5439C77.281 11.4204 77.3166 11.2875 77.3213 11.1451V10.1409L76.7231 10.148C76.4762 10.148 76.2198 10.1812 75.9539 10.2477C75.6928 10.3142 75.472 10.4257 75.2916 10.5824C75.1111 10.7344 75.0209 10.9456 75.0209 11.2163C75.0209 11.5249 75.1254 11.767 75.3343 11.9427C75.5479 12.1184 75.7996 12.2062 76.0892 12.2062Z" fill="white"/>
<path d="M81.3114 13.6235V6.25941H83.6474V8.14672C83.7613 7.76214 83.9251 7.41791 84.1388 7.11404C84.3572 6.80542 84.6255 6.56328 84.9436 6.3876C85.2617 6.20718 85.6297 6.11697 86.0475 6.11697C86.0997 6.11697 86.1448 6.11934 86.1828 6.12409C86.2255 6.12409 86.2516 6.12884 86.2611 6.13833V8.43872C86.2374 8.42923 86.2065 8.42211 86.1686 8.41736C86.1353 8.41261 86.0997 8.41023 86.0617 8.41023C85.5964 8.36275 85.2118 8.36988 84.908 8.4316C84.6088 8.49332 84.3714 8.59303 84.1958 8.73072C84.0248 8.86841 83.9038 9.03222 83.8326 9.22214C83.7661 9.41206 83.7328 9.61859 83.7328 9.84175V13.6235H81.3114Z" fill="white"/>
<path d="M88.8681 15.9737C88.3316 15.9737 87.947 15.9263 87.7143 15.8313C87.4864 15.7363 87.3725 15.6889 87.3725 15.6889V14.1505L88.0918 14.1861C88.4337 14.2099 88.7043 14.198 88.9037 14.1505C89.1031 14.103 89.2503 14.0366 89.3453 13.9511C89.445 13.8704 89.5115 13.7873 89.5447 13.7018C89.5827 13.6211 89.6088 13.5642 89.623 13.5309L89.7085 13.2532L86.8455 6.25941H89.2384L90.8195 10.6608L92.4291 6.25941H94.8078L91.8736 13.4312C91.5887 14.1292 91.2896 14.6609 90.9762 15.0265C90.6676 15.3969 90.3376 15.6461 89.9863 15.7743C89.6397 15.9073 89.2669 15.9737 88.8681 15.9737Z" fill="white"/>
<path d="M103.141 3.18272C103.938 3.18272 104.648 3.34178 105.27 3.65989C105.897 3.97326 106.402 4.4077 106.787 4.96321C107.172 5.51397 107.402 6.14308 107.478 6.85053H104.935C104.878 6.50867 104.769 6.21193 104.608 5.96028C104.451 5.70389 104.242 5.50448 103.981 5.36204C103.725 5.2196 103.418 5.14838 103.062 5.14838C102.649 5.14838 102.288 5.25284 101.98 5.46175C101.671 5.66591 101.431 6.00776 101.26 6.48731C101.094 6.9621 101.011 7.59833 101.011 8.39599C101.011 9.61147 101.196 10.4827 101.567 11.0097C101.942 11.5368 102.44 11.8003 103.062 11.8003C103.418 11.8003 103.725 11.7148 103.981 11.5439C104.242 11.373 104.451 11.1451 104.608 10.8602C104.769 10.5706 104.878 10.2572 104.935 9.92009H107.478C107.411 10.4281 107.29 10.9148 107.115 11.3801C106.944 11.8406 106.694 12.2513 106.367 12.6122C106.039 12.973 105.612 13.2555 105.085 13.4597C104.563 13.6639 103.915 13.7659 103.141 13.7659C102.163 13.7659 101.315 13.538 100.598 13.0822C99.8811 12.6217 99.3256 11.9855 98.9315 11.1736C98.5374 10.3616 98.3404 9.42393 98.3404 8.36038C98.3404 7.30158 98.5351 6.38523 98.9244 5.61131C99.3137 4.83739 99.8669 4.23914 100.584 3.81658C101.306 3.39401 102.158 3.18272 103.141 3.18272Z" fill="white"/>
<path d="M112.247 13.7659C111.507 13.7659 110.863 13.6093 110.317 13.2959C109.771 12.9778 109.346 12.5362 109.043 11.9712C108.743 11.4015 108.594 10.7391 108.594 9.98419C108.594 9.21501 108.746 8.5408 109.05 7.96155C109.358 7.37755 109.788 6.92412 110.339 6.60126C110.89 6.2784 111.528 6.11697 112.255 6.11697C113.005 6.11697 113.65 6.28077 114.192 6.60838C114.738 6.93124 115.158 7.38467 115.452 7.96867C115.747 8.54793 115.894 9.21976 115.894 9.98419C115.894 10.7201 115.747 11.373 115.452 11.9427C115.163 12.5077 114.745 12.954 114.199 13.2816C113.653 13.6045 113.002 13.7659 112.247 13.7659ZM112.255 11.9855C112.587 11.9855 112.846 11.8834 113.031 11.6792C113.216 11.4703 113.347 11.2068 113.423 10.8887C113.499 10.5658 113.537 10.2382 113.537 9.90584C113.537 9.57823 113.501 9.25775 113.43 8.94438C113.358 8.63101 113.23 8.37462 113.045 8.17521C112.86 7.97105 112.596 7.86897 112.255 7.86897C111.922 7.86897 111.661 7.96867 111.471 8.16809C111.286 8.36275 111.153 8.61677 111.072 8.93014C110.996 9.23875 110.958 9.56399 110.958 9.90584C110.958 10.2287 110.994 10.5516 111.065 10.8744C111.141 11.1925 111.272 11.4584 111.457 11.6721C111.647 11.881 111.913 11.9855 112.255 11.9855Z" fill="white"/>
<path d="M119.753 13.7659C119.435 13.7659 119.112 13.7137 118.784 13.6093C118.456 13.5048 118.155 13.3529 117.88 13.1535C117.604 12.9493 117.381 12.7024 117.21 12.4128C117.044 12.1184 116.961 11.7813 116.961 11.4015V6.25941H119.389V11.0738C119.389 11.3492 119.484 11.5795 119.674 11.7647C119.864 11.9451 120.137 12.0353 120.493 12.0353C120.835 12.0353 121.106 11.9475 121.305 11.7718C121.505 11.5914 121.604 11.354 121.604 11.0596V6.25941H124.012V13.6235H122.203L121.918 12.135C121.828 12.5956 121.661 12.9445 121.419 13.1819C121.177 13.4146 120.904 13.5689 120.6 13.6449C120.301 13.7256 120.019 13.7659 119.753 13.7659Z" fill="white"/>
<path d="M125.545 13.6235V6.25941H127.881V8.14672C127.995 7.76214 128.159 7.41791 128.373 7.11404C128.591 6.80542 128.859 6.56328 129.178 6.3876C129.496 6.20718 129.864 6.11697 130.281 6.11697C130.334 6.11697 130.379 6.11934 130.417 6.12409C130.46 6.12409 130.486 6.12884 130.495 6.13833V8.43872C130.471 8.42923 130.441 8.42211 130.403 8.41736C130.369 8.41261 130.334 8.41023 130.296 8.41023C129.83 8.36275 129.446 8.36988 129.142 8.4316C128.843 8.49332 128.605 8.59303 128.43 8.73072C128.259 8.86841 128.138 9.03222 128.067 9.22214C128 9.41206 127.967 9.61859 127.967 9.84175V13.6235H125.545Z" fill="white"/>
<path d="M134.484 13.7659C133.972 13.7659 133.471 13.6805 132.982 13.5096C132.493 13.3386 132.075 13.0656 131.728 12.6905C131.382 12.3154 131.158 11.8264 131.059 11.2234H133.138C133.2 11.475 133.312 11.6673 133.473 11.8003C133.634 11.9332 133.808 12.0234 133.993 12.0709C134.178 12.1184 134.337 12.1421 134.47 12.1421C134.821 12.1421 135.106 12.0923 135.325 11.9926C135.543 11.8929 135.652 11.7409 135.652 11.5368C135.652 11.3658 135.583 11.2329 135.446 11.1379C135.313 11.0382 135.08 10.9599 134.748 10.9029L133.551 10.6821C132.877 10.5539 132.331 10.3189 131.913 9.97706C131.5 9.63046 131.291 9.14142 131.287 8.50994C131.282 8.05888 131.403 7.65293 131.65 7.29209C131.897 6.93124 132.26 6.64636 132.739 6.43745C133.219 6.2238 133.808 6.11697 134.506 6.11697C135.46 6.11697 136.22 6.32588 136.785 6.7437C137.35 7.16152 137.635 7.7384 137.639 8.47433H135.645C135.593 8.22269 135.458 8.03277 135.239 7.90458C135.026 7.77163 134.769 7.70516 134.47 7.70516C134.166 7.70516 133.91 7.75739 133.701 7.86184C133.497 7.96155 133.395 8.11349 133.395 8.31765C133.395 8.47433 133.485 8.60015 133.665 8.69511C133.846 8.79007 134.133 8.87554 134.527 8.9515L135.602 9.17228C136.044 9.28149 136.402 9.42867 136.678 9.61384C136.953 9.79427 137.165 9.99131 137.312 10.205C137.464 10.4186 137.568 10.6323 137.625 10.8459C137.682 11.0549 137.711 11.24 137.711 11.4015C137.711 11.9095 137.57 12.3392 137.29 12.6905C137.01 13.0419 136.626 13.3101 136.137 13.4953C135.652 13.6757 135.102 13.7659 134.484 13.7659Z" fill="white"/>
<path d="M141.048 10.497C141.043 10.8341 141.095 11.119 141.204 11.3516C141.313 11.5795 141.468 11.7528 141.667 11.8715C141.867 11.9902 142.099 12.0496 142.365 12.0496C142.669 12.0496 142.937 11.9878 143.17 11.8644C143.407 11.7362 143.581 11.5154 143.69 11.202H145.855C145.774 11.7386 145.56 12.1991 145.214 12.5837C144.872 12.9635 144.454 13.2555 143.96 13.4597C143.467 13.6639 142.956 13.7659 142.429 13.7659C141.679 13.7659 141.019 13.6116 140.449 13.303C139.884 12.9944 139.443 12.56 139.125 11.9997C138.811 11.4394 138.655 10.7818 138.655 10.0269C138.655 9.30997 138.799 8.65713 139.089 8.06838C139.379 7.47489 139.796 7.00246 140.342 6.65111C140.888 6.29501 141.546 6.11697 142.315 6.11697C143.094 6.11697 143.744 6.28077 144.267 6.60838C144.789 6.93124 145.181 7.37755 145.442 7.94731C145.708 8.51232 145.841 9.16041 145.841 9.8916V10.497H141.048ZM141.04 9.10106H143.59C143.59 8.85892 143.543 8.63814 143.448 8.43872C143.353 8.23456 143.21 8.07313 143.02 7.95443C142.83 7.83573 142.595 7.77638 142.315 7.77638C142.059 7.77638 141.836 7.84048 141.646 7.96867C141.456 8.09212 141.306 8.25593 141.197 8.46009C141.088 8.6595 141.036 8.87316 141.04 9.10106Z" fill="white"/>
<path d="M46.2927 26.0479V19.7101H50.2721L50.2678 20.4245H47.1043V22.4933H49.9536V23.2033H47.0999V25.316L50.355 25.3247V26.0479H46.2927Z" fill="#F77761"/>
<path d="M51.4278 26.0479V21.5159H52.2088V22.1733C52.2815 22.0477 52.3819 21.9293 52.5099 21.8183C52.6408 21.7073 52.7979 21.6181 52.9811 21.5509C53.1673 21.4837 53.3811 21.4501 53.6226 21.4501C53.9076 21.4501 54.1694 21.5071 54.408 21.6211C54.6494 21.735 54.8414 21.9133 54.984 22.1558C55.1294 22.3954 55.2021 22.7051 55.2021 23.085V26.0479H54.3949V23.1639C54.3949 22.8103 54.3018 22.5488 54.1156 22.3793C53.9324 22.2069 53.6938 22.1207 53.4 22.1207C53.1964 22.1207 53.0059 22.1543 52.8284 22.2215C52.651 22.2858 52.507 22.3852 52.3964 22.5196C52.2859 22.6511 52.2306 22.8176 52.2306 23.0192V26.0479H51.4278Z" fill="#F77761"/>
<path d="M56.4645 26.0479V19.5347H57.2499V22.1821C57.3255 22.0564 57.4273 21.9396 57.5553 21.8314C57.6833 21.7204 57.8389 21.6313 58.0222 21.5641C58.2055 21.4939 58.4178 21.4589 58.6593 21.4589C58.9531 21.4589 59.2192 21.5144 59.4578 21.6254C59.6963 21.7336 59.8854 21.8884 60.025 22.09C60.1647 22.2917 60.2345 22.5313 60.2345 22.8089V26.0479H59.4272V22.971C59.4272 22.6993 59.3341 22.4904 59.148 22.3443C58.9647 22.1952 58.7247 22.1207 58.428 22.1207C58.2273 22.1207 58.0382 22.1543 57.8608 22.2215C57.6833 22.2858 57.5393 22.3852 57.4288 22.5196C57.3211 22.6511 57.2673 22.8191 57.2673 23.0236V26.0479H56.4645Z" fill="#F77761"/>
<path d="M62.7235 26.1356C62.4326 26.1356 62.1752 26.0844 61.9512 25.9822C61.7272 25.877 61.5512 25.7265 61.4232 25.5307C61.2981 25.335 61.2356 25.0983 61.2356 24.8207C61.2356 24.3181 61.4101 23.9441 61.7592 23.6986C62.1083 23.4532 62.6683 23.3217 63.4391 23.3041L64.2464 23.2822V22.9272C64.2464 22.6496 64.1635 22.4305 63.9977 22.2697C63.8318 22.1061 63.5744 22.0243 63.2253 22.0243C62.9664 22.0272 62.7381 22.0886 62.5403 22.2084C62.3454 22.3282 62.2188 22.524 62.1607 22.7957H61.4494C61.4669 22.5006 61.5498 22.2522 61.6981 22.0506C61.8465 21.8461 62.053 21.6912 62.3177 21.586C62.5854 21.4808 62.901 21.4282 63.2646 21.4282C63.6573 21.4282 63.9831 21.4837 64.242 21.5948C64.5038 21.7058 64.6987 21.8694 64.8267 22.0857C64.9576 22.3019 65.0231 22.5678 65.0231 22.8834V26.0479H64.3336L64.2769 25.1976C64.1024 25.5512 63.8798 25.7966 63.6093 25.934C63.3417 26.0684 63.0464 26.1356 62.7235 26.1356ZM62.9679 25.5526C63.1192 25.5526 63.269 25.5249 63.4173 25.4694C63.5686 25.4138 63.7068 25.3393 63.8318 25.2458C63.9569 25.1494 64.0558 25.0427 64.1286 24.9259C64.2042 24.8061 64.2435 24.6833 64.2464 24.5577V23.7819L63.5744 23.795C63.2311 23.8009 62.9432 23.836 62.7104 23.9002C62.4806 23.9645 62.3076 24.0653 62.1912 24.2027C62.0777 24.34 62.021 24.5197 62.021 24.7418C62.021 24.996 62.1083 25.1947 62.2828 25.3379C62.4603 25.4811 62.6886 25.5526 62.9679 25.5526Z" fill="#F77761"/>
<path d="M66.4015 26.0479V21.5159H67.1826V22.1733C67.2553 22.0477 67.3556 21.9293 67.4836 21.8183C67.6145 21.7073 67.7716 21.6181 67.9549 21.5509C68.1411 21.4837 68.3549 21.4501 68.5963 21.4501C68.8814 21.4501 69.1432 21.5071 69.3817 21.6211C69.6232 21.735 69.8152 21.9133 69.9577 22.1558C70.1032 22.3954 70.1759 22.7051 70.1759 23.085V26.0479H69.3686V23.1639C69.3686 22.8103 69.2756 22.5488 69.0894 22.3793C68.9061 22.2069 68.6676 22.1207 68.3738 22.1207C68.1702 22.1207 67.9796 22.1543 67.8022 22.2215C67.6247 22.2858 67.4807 22.3852 67.3702 22.5196C67.2596 22.6511 67.2044 22.8176 67.2044 23.0192V26.0479H66.4015Z" fill="#F77761"/>
<path d="M73.2359 21.4282C73.5588 21.4282 73.8497 21.491 74.1086 21.6167C74.3675 21.7394 74.5784 21.9147 74.7413 22.1426C74.9071 22.3706 75.0104 22.6394 75.0511 22.9491H74.3355C74.3094 22.7913 74.2483 22.6467 74.1523 22.5152C74.0592 22.3837 73.9356 22.2785 73.7814 22.1996C73.6272 22.1207 73.4468 22.0813 73.2403 22.0813C72.8534 22.0813 72.5393 22.2215 72.2978 22.502C72.0564 22.7826 71.9356 23.2121 71.9356 23.7907C71.9356 24.3137 72.0462 24.733 72.2673 25.0486C72.4913 25.3612 72.82 25.5176 73.2534 25.5176C73.4599 25.5176 73.6388 25.4781 73.7901 25.3992C73.9443 25.3174 74.0679 25.2108 74.161 25.0793C74.2541 24.9449 74.3137 24.8017 74.3399 24.6497H75.0424C75.0046 24.9536 74.9028 25.2166 74.737 25.4387C74.5712 25.6608 74.3588 25.8332 74.0999 25.9559C73.8439 26.0757 73.5559 26.1356 73.2359 26.1356C72.8316 26.1356 72.4723 26.0465 72.1582 25.8682C71.8469 25.69 71.6026 25.427 71.4251 25.0793C71.2477 24.7316 71.1589 24.3049 71.1589 23.7994C71.1589 23.3261 71.2389 22.9126 71.3989 22.559C71.5618 22.2025 71.7975 21.9249 72.1058 21.7262C72.4171 21.5276 72.7938 21.4282 73.2359 21.4282Z" fill="#F77761"/>
<path d="M76.7185 23.9704C76.7185 24.2567 76.7651 24.5168 76.8581 24.7505C76.9541 24.9814 77.0981 25.1655 77.2901 25.3028C77.485 25.4401 77.7279 25.5088 78.0188 25.5088C78.3068 25.5088 78.5541 25.4416 78.7606 25.3072C78.9701 25.1728 79.1039 24.9785 79.162 24.7242H79.9256C79.8704 25.0311 79.7482 25.2897 79.5591 25.5C79.37 25.7104 79.1417 25.8697 78.8741 25.9778C78.6064 26.083 78.3272 26.1356 78.0363 26.1356C77.6145 26.1356 77.2436 26.0435 76.9236 25.8595C76.6036 25.6754 76.3534 25.4109 76.1731 25.0661C75.9927 24.7213 75.9026 24.3079 75.9026 23.8257C75.9026 23.3494 75.984 22.9316 76.1469 22.5722C76.3098 22.2128 76.5454 21.9323 76.8538 21.7306C77.165 21.529 77.5388 21.4282 77.9752 21.4282C78.3999 21.4282 78.7592 21.5202 79.053 21.7043C79.3468 21.8884 79.5693 22.1485 79.7206 22.4845C79.8747 22.8176 79.9518 23.2136 79.9518 23.6723V23.9704H76.7185ZM76.7229 23.4225H79.1751C79.1751 23.1624 79.1315 22.9287 79.0442 22.7212C78.957 22.5108 78.8231 22.3457 78.6428 22.2259C78.4653 22.1032 78.2414 22.0418 77.9708 22.0418C77.6887 22.0418 77.4545 22.1105 77.2683 22.2478C77.085 22.3822 76.9469 22.5561 76.8538 22.7694C76.7636 22.9798 76.72 23.1975 76.7229 23.4225Z" fill="#F77761"/>
<path d="M83.414 27.4943C83.1493 27.4943 82.9675 27.4753 82.8686 27.4373C82.7697 27.3994 82.7202 27.3804 82.7202 27.3804V26.8544L83.1784 26.8632C83.3471 26.869 83.4867 26.8573 83.5973 26.8281C83.7078 26.7989 83.7965 26.7594 83.8634 26.7098C83.9303 26.6601 83.9813 26.6046 84.0162 26.5432C84.054 26.4818 84.0845 26.4234 84.1078 26.3679L84.2649 25.9383L82.5021 21.5159H83.318L84.6489 25.0135L85.971 21.5159H86.7608L84.8583 26.3898C84.7419 26.6762 84.611 26.8997 84.4656 27.0604C84.3231 27.2211 84.1631 27.3336 83.9856 27.3979C83.8111 27.4622 83.6205 27.4943 83.414 27.4943Z" fill="#F77761"/>
<path d="M89.2536 26.1356C88.8376 26.1356 88.474 26.0465 88.1627 25.8682C87.8515 25.6871 87.61 25.4226 87.4384 25.0749C87.2668 24.7272 87.181 24.302 87.181 23.7994C87.181 23.3261 87.2609 22.9111 87.4209 22.5546C87.5809 22.1982 87.8151 21.922 88.1235 21.7262C88.4347 21.5276 88.8114 21.4282 89.2536 21.4282C89.6696 21.4282 90.0303 21.5202 90.3357 21.7043C90.6441 21.8855 90.8826 22.1529 91.0513 22.5064C91.22 22.86 91.3044 23.291 91.3044 23.7994C91.3044 24.2611 91.2259 24.6673 91.0688 25.0179C90.9146 25.3686 90.6848 25.6432 90.3793 25.8419C90.0768 26.0377 89.7016 26.1356 89.2536 26.1356ZM89.2536 25.4957C89.5241 25.4957 89.7525 25.427 89.9386 25.2897C90.1248 25.1523 90.2659 24.9551 90.3619 24.6979C90.4579 24.4408 90.5059 24.1355 90.5059 23.7819C90.5059 23.4575 90.4637 23.1668 90.3793 22.9097C90.295 22.6496 90.1597 22.4436 89.9736 22.2917C89.7903 22.1397 89.5503 22.0637 89.2536 22.0637C88.9801 22.0637 88.7489 22.1324 88.5598 22.2697C88.3707 22.4042 88.2267 22.5999 88.1278 22.8571C88.0318 23.1142 87.9838 23.4225 87.9838 23.7819C87.9838 24.1004 88.0275 24.3897 88.1147 24.6497C88.202 24.9098 88.3387 25.1158 88.5249 25.2677C88.7111 25.4197 88.954 25.4957 89.2536 25.4957Z" fill="#F77761"/>
<path d="M93.9505 26.1356C93.7149 26.1327 93.4923 26.0991 93.2829 26.0348C93.0763 25.9676 92.8931 25.8697 92.7331 25.7411C92.5731 25.6125 92.4466 25.4533 92.3535 25.2634C92.2633 25.0705 92.2182 24.847 92.2182 24.5928V21.5159H93.0254V24.5095C93.0254 24.8046 93.1156 25.0442 93.296 25.2283C93.4792 25.4124 93.7541 25.5044 94.1207 25.5044C94.4523 25.5044 94.7185 25.4182 94.9192 25.2458C95.1228 25.0705 95.2246 24.8104 95.2246 24.4656V21.5159H96.0275V26.0479H95.3861L95.3032 25.1801C95.2479 25.408 95.1533 25.5921 95.0195 25.7323C94.8886 25.8726 94.7301 25.9763 94.5439 26.0435C94.3606 26.1078 94.1628 26.1385 93.9505 26.1356Z" fill="#F77761"/>
<path d="M97.3376 26.0479V21.5159H98.1056V22.3881C98.1812 22.1719 98.2874 21.9936 98.4241 21.8534C98.5608 21.7102 98.7165 21.6035 98.891 21.5334C99.0684 21.4633 99.2517 21.4282 99.4408 21.4282C99.5077 21.4282 99.5731 21.4326 99.6371 21.4414C99.7011 21.4501 99.7506 21.4647 99.7855 21.4852V22.2697C99.7419 22.2493 99.6851 22.2361 99.6153 22.2303C99.5484 22.2215 99.4917 22.2171 99.4452 22.2171C99.2648 22.2055 99.0961 22.2171 98.939 22.2522C98.7819 22.2844 98.6437 22.3413 98.5245 22.4232C98.4052 22.505 98.3107 22.6131 98.2408 22.7475C98.1739 22.879 98.1405 23.0397 98.1405 23.2296V26.0479H97.3376Z" fill="#F77761"/>
<path d="M106.694 26.0479H105.839L104.425 23.7731L103.535 24.6979V26.0479H102.732V19.5347H103.535V23.7819L105.656 21.5159H106.581L104.953 23.2428L106.694 26.0479Z" fill="#F77761"/>
<path d="M107.658 26.0479V21.5159H108.439V22.1733C108.512 22.0477 108.612 21.9293 108.74 21.8183C108.871 21.7073 109.028 21.6181 109.212 21.5509C109.398 21.4837 109.612 21.4501 109.853 21.4501C110.138 21.4501 110.4 21.5071 110.638 21.6211C110.88 21.735 111.072 21.9133 111.214 22.1558C111.36 22.3954 111.433 22.7051 111.433 23.085V26.0479H110.625V23.1639C110.625 22.8103 110.532 22.5488 110.346 22.3793C110.163 22.2069 109.924 22.1207 109.63 22.1207C109.427 22.1207 109.236 22.1543 109.059 22.2215C108.881 22.2858 108.737 22.3852 108.627 22.5196C108.516 22.6511 108.461 22.8176 108.461 23.0192V26.0479H107.658Z" fill="#F77761"/>
<path d="M114.488 26.1356C114.072 26.1356 113.709 26.0465 113.397 25.8682C113.086 25.6871 112.845 25.4226 112.673 25.0749C112.501 24.7272 112.416 24.302 112.416 23.7994C112.416 23.3261 112.496 22.9111 112.656 22.5546C112.816 22.1982 113.05 21.922 113.358 21.7262C113.669 21.5276 114.046 21.4282 114.488 21.4282C114.904 21.4282 115.265 21.5202 115.57 21.7043C115.879 21.8855 116.117 22.1529 116.286 22.5064C116.455 22.86 116.539 23.291 116.539 23.7994C116.539 24.2611 116.461 24.6673 116.303 25.0179C116.149 25.3686 115.919 25.6432 115.614 25.8419C115.311 26.0377 114.936 26.1356 114.488 26.1356ZM114.488 25.4957C114.759 25.4957 114.987 25.427 115.173 25.2897C115.359 25.1523 115.501 24.9551 115.597 24.6979C115.693 24.4408 115.741 24.1355 115.741 23.7819C115.741 23.4575 115.698 23.1668 115.614 22.9097C115.53 22.6496 115.394 22.4436 115.208 22.2917C115.025 22.1397 114.785 22.0637 114.488 22.0637C114.215 22.0637 113.984 22.1324 113.794 22.2697C113.605 22.4042 113.461 22.5999 113.362 22.8571C113.266 23.1142 113.218 23.4225 113.218 23.7819C113.218 24.1004 113.262 24.3897 113.349 24.6497C113.437 24.9098 113.573 25.1158 113.76 25.2677C113.946 25.4197 114.189 25.4957 114.488 25.4957Z" fill="#F77761"/>
<path d="M123.368 21.5159L122.002 26.0479H121.208L120.178 22.7037L119.2 26.0479H118.411L117.019 21.5159H117.765L118.799 25.0004H118.869L119.886 21.5159H120.496L121.552 24.9916H121.622L122.613 21.5159H123.368Z" fill="#F77761"/>
<path d="M125.424 26.1049C125.18 26.1049 124.982 26.0713 124.831 26.0041C124.682 25.9369 124.567 25.8463 124.486 25.7323C124.407 25.6184 124.354 25.4884 124.325 25.3423C124.298 25.1932 124.285 25.0398 124.285 24.882V19.5347H125.079V24.8031C125.079 25.0311 125.123 25.202 125.21 25.316C125.3 25.4299 125.426 25.4927 125.586 25.5044L125.83 25.5088V26.0348C125.763 26.0552 125.693 26.0713 125.62 26.083C125.548 26.0976 125.482 26.1049 125.424 26.1049Z" fill="#F77761"/>
<path d="M127.392 23.9704C127.392 24.2567 127.439 24.5168 127.532 24.7505C127.628 24.9814 127.772 25.1655 127.964 25.3028C128.159 25.4401 128.402 25.5088 128.693 25.5088C128.981 25.5088 129.228 25.4416 129.434 25.3072C129.644 25.1728 129.778 24.9785 129.836 24.7242H130.599C130.544 25.0311 130.422 25.2897 130.233 25.5C130.044 25.7104 129.816 25.8697 129.548 25.9778C129.28 26.083 129.001 26.1356 128.71 26.1356C128.288 26.1356 127.917 26.0435 127.597 25.8595C127.277 25.6754 127.027 25.4109 126.847 25.0661C126.667 24.7213 126.576 24.3079 126.576 23.8257C126.576 23.3494 126.658 22.9316 126.821 22.5722C126.984 22.2128 127.219 21.9323 127.528 21.7306C127.839 21.529 128.213 21.4282 128.649 21.4282C129.074 21.4282 129.433 21.5202 129.727 21.7043C130.021 21.8884 130.243 22.1485 130.394 22.4845C130.549 22.8176 130.626 23.2136 130.626 23.6723V23.9704H127.392ZM127.397 23.4225H129.849C129.849 23.1624 129.805 22.9287 129.718 22.7212C129.631 22.5108 129.497 22.3457 129.317 22.2259C129.139 22.1032 128.915 22.0418 128.645 22.0418C128.363 22.0418 128.128 22.1105 127.942 22.2478C127.759 22.3822 127.621 22.5561 127.528 22.7694C127.437 22.9798 127.394 23.1975 127.397 23.4225Z" fill="#F77761"/>
<path d="M133.361 26.1356C132.777 26.1356 132.313 25.934 131.969 25.5307C131.626 25.1275 131.455 24.5387 131.455 23.7644C131.455 23.2939 131.523 22.8834 131.66 22.5327C131.799 22.1821 132.006 21.9103 132.279 21.7175C132.553 21.5246 132.893 21.4282 133.3 21.4282C133.516 21.4282 133.706 21.456 133.872 21.5115C134.041 21.567 134.186 21.6371 134.308 21.7219C134.43 21.8066 134.529 21.8943 134.605 21.9848C134.683 22.0754 134.742 22.1587 134.779 22.2347V19.5347H135.591V26.0479H134.976L134.889 25.1187C134.859 25.2064 134.813 25.3087 134.749 25.4255C134.685 25.5395 134.595 25.652 134.478 25.763C134.362 25.8711 134.212 25.9603 134.029 26.0304C133.849 26.1005 133.626 26.1356 133.361 26.1356ZM133.505 25.5132C133.962 25.5132 134.288 25.3744 134.483 25.0968C134.681 24.8163 134.779 24.359 134.779 23.7249C134.777 23.3713 134.731 23.0704 134.644 22.822C134.56 22.5736 134.426 22.3852 134.243 22.2566C134.062 22.1251 133.822 22.0594 133.523 22.0594C133.15 22.0594 132.848 22.1923 132.615 22.4582C132.382 22.7241 132.266 23.1464 132.266 23.7249C132.266 24.2918 132.371 24.7316 132.58 25.0442C132.793 25.3569 133.101 25.5132 133.505 25.5132Z" fill="#F77761"/>
<path d="M138.809 27.5469C138.1 27.5469 137.547 27.4432 137.151 27.2357C136.758 27.0312 136.562 26.7375 136.562 26.3547C136.562 26.1911 136.6 26.0523 136.676 25.9383C136.751 25.8215 136.841 25.725 136.946 25.6491C137.051 25.5731 137.148 25.5132 137.238 25.4694C137.329 25.4226 137.387 25.389 137.413 25.3686C137.364 25.3393 137.301 25.3028 137.225 25.259C137.153 25.2151 137.089 25.1567 137.033 25.0837C136.978 25.0106 136.95 24.9156 136.95 24.7988C136.95 24.6556 137.017 24.5241 137.151 24.4043C137.285 24.2845 137.483 24.1954 137.745 24.1369C137.48 24.0025 137.273 23.8243 137.125 23.6022C136.977 23.3801 136.902 23.139 136.902 22.879C136.902 22.5868 136.981 22.3326 137.138 22.1163C137.298 21.9001 137.525 21.735 137.819 21.6211C138.113 21.5042 138.462 21.4457 138.866 21.4457C139.16 21.4457 139.407 21.4808 139.608 21.5509C139.809 21.6181 139.995 21.7146 140.166 21.8402C140.213 21.8198 140.286 21.7891 140.385 21.7482C140.486 21.7043 140.598 21.6576 140.72 21.6079C140.843 21.5582 140.956 21.5115 141.061 21.4676C141.168 21.4209 141.254 21.3858 141.318 21.3625L141.314 22.112L140.524 22.261C140.568 22.3545 140.603 22.4568 140.629 22.5678C140.658 22.6788 140.672 22.7826 140.672 22.879C140.672 23.1449 140.603 23.386 140.463 23.6022C140.326 23.8184 140.118 23.9908 139.839 24.1194C139.56 24.248 139.211 24.3122 138.792 24.3122C138.757 24.3122 138.712 24.3122 138.657 24.3122C138.604 24.3093 138.559 24.3064 138.521 24.3035C138.213 24.3122 138.001 24.3473 137.884 24.4087C137.768 24.4671 137.71 24.5329 137.71 24.6059C137.71 24.6906 137.775 24.7491 137.906 24.7812C138.037 24.8134 138.26 24.8411 138.574 24.8645C138.687 24.8703 138.827 24.8777 138.993 24.8864C139.161 24.8952 139.347 24.9069 139.551 24.9215C140.025 24.9507 140.39 25.072 140.646 25.2853C140.902 25.4986 141.03 25.7864 141.03 26.1487C141.03 26.5607 140.847 26.8968 140.481 27.1568C140.114 27.4169 139.557 27.5469 138.809 27.5469ZM138.953 27.0253C139.369 27.0253 139.688 26.9625 139.909 26.8369C140.13 26.7112 140.241 26.5213 140.241 26.2671C140.241 26.0859 140.172 25.9383 140.035 25.8244C139.902 25.7075 139.697 25.6403 139.42 25.6228L138.155 25.5395C138.041 25.5336 137.924 25.5629 137.801 25.6272C137.679 25.6885 137.574 25.7747 137.487 25.8858C137.403 25.9968 137.361 26.1224 137.361 26.2627C137.361 26.5023 137.49 26.6893 137.749 26.8237C138.011 26.9581 138.412 27.0253 138.953 27.0253ZM138.814 23.7907C139.139 23.7907 139.401 23.7147 139.599 23.5627C139.8 23.4108 139.9 23.1858 139.9 22.8878C139.9 22.5809 139.8 22.3472 139.599 22.1865C139.401 22.0258 139.139 21.9454 138.814 21.9454C138.485 21.9454 138.219 22.0272 138.015 22.1909C137.814 22.3516 137.714 22.5839 137.714 22.8878C137.714 23.1741 137.81 23.3962 138.002 23.554C138.194 23.7118 138.465 23.7907 138.814 23.7907Z" fill="#F77761"/>
<path d="M142.767 23.9704C142.767 24.2567 142.813 24.5168 142.906 24.7505C143.002 24.9814 143.146 25.1655 143.338 25.3028C143.533 25.4401 143.776 25.5088 144.067 25.5088C144.355 25.5088 144.602 25.4416 144.809 25.3072C145.018 25.1728 145.152 24.9785 145.21 24.7242H145.974C145.919 25.0311 145.796 25.2897 145.607 25.5C145.418 25.7104 145.19 25.8697 144.922 25.9778C144.655 26.083 144.375 26.1356 144.084 26.1356C143.663 26.1356 143.292 26.0435 142.972 25.8595C142.652 25.6754 142.402 25.4109 142.221 25.0661C142.041 24.7213 141.951 24.3079 141.951 23.8257C141.951 23.3494 142.032 22.9316 142.195 22.5722C142.358 22.2128 142.594 21.9323 142.902 21.7306C143.213 21.529 143.587 21.4282 144.023 21.4282C144.448 21.4282 144.807 21.5202 145.101 21.7043C145.395 21.8884 145.617 22.1485 145.769 22.4845C145.923 22.8176 146 23.2136 146 23.6723V23.9704H142.767ZM142.771 23.4225H145.223C145.223 23.1624 145.18 22.9287 145.092 22.7212C145.005 22.5108 144.871 22.3457 144.691 22.2259C144.514 22.1032 144.29 22.0418 144.019 22.0418C143.737 22.0418 143.503 22.1105 143.316 22.2478C143.133 22.3822 142.995 22.5561 142.902 22.7694C142.812 22.9798 142.768 23.1975 142.771 23.4225Z" fill="#F77761"/>
</g>
<defs>
<clipPath id="clip0_2_84">
<rect width="146" height="29.8453" fill="white" transform="translate(0 0.578125)"/>
</clipPath>
</defs>
</svg>
