<svg width="146" height="31" viewBox="0 0 146 31" fill="none" xmlns="http://www.w3.org/2000/svg">
<g clip-path="url(#clip0_129_11551)">
<path d="M14.5064 29.7189C14.3199 29.7189 14.1672 29.5679 14.1672 29.3834V17.4233H10.0976C8.72404 17.4233 7.65575 18.0775 7.24878 19.1678C6.85877 20.2078 7.14704 21.3652 8.01185 22.1033C8.91057 22.8917 10.3858 22.8078 11.2846 21.9188C11.6576 21.5498 11.878 20.9794 11.8441 20.4427C11.8272 20.0904 11.7085 19.5704 11.1998 19.1678C10.8606 18.8826 10.3689 18.7484 9.91103 18.782C9.63972 18.8155 9.24971 18.9162 8.96144 19.2685C8.80883 19.4697 8.72404 19.7381 8.75796 20.0233C8.79187 20.3252 8.92753 20.5769 9.13101 20.7278C9.38537 20.9291 9.67364 21.013 9.91103 20.9291C10.0806 20.8788 10.2163 20.7278 10.2671 20.5265C10.318 20.342 10.5045 20.2414 10.6741 20.2917C10.8606 20.342 10.9624 20.5265 10.9115 20.6943C10.7928 21.1136 10.5045 21.4323 10.1145 21.5665C9.67364 21.7175 9.13101 21.6001 8.70708 21.2478C8.36794 20.9794 8.1475 20.5601 8.09663 20.0904C8.04576 19.6207 8.18142 19.1678 8.45273 18.8323C8.80883 18.413 9.30058 18.1446 9.86016 18.0942C10.4876 18.0272 11.1828 18.2452 11.6406 18.631C12.1833 19.0672 12.4885 19.7046 12.5224 20.3923C12.5563 21.1304 12.2681 21.8685 11.7593 22.3717C10.6063 23.5124 8.72404 23.613 7.55401 22.5898C6.48571 21.6672 6.11266 20.2078 6.60441 18.8994C7.13008 17.5239 8.43577 16.7188 10.0976 16.7188H14.5064C14.6929 16.7188 14.8455 16.8697 14.8455 17.0542V29.3498C14.8455 29.5679 14.6929 29.7189 14.5064 29.7189Z" fill="#23273C"/>
<path d="M17.1731 29.7194C16.9866 29.7194 16.834 29.5685 16.834 29.384V21.5503C16.834 21.3658 16.9866 21.2148 17.1731 21.2148C17.3597 21.2148 17.5123 21.3658 17.5123 21.5503V29.384C17.5123 29.5685 17.3597 29.7194 17.1731 29.7194Z" fill="#23273C"/>
<path d="M21.968 29.7194C21.7815 29.7194 21.6289 29.5685 21.6289 29.384V21.5503C21.6289 21.3658 21.7815 21.2148 21.968 21.2148C22.1546 21.2148 22.3072 21.3658 22.3072 21.5503V29.384C22.3072 29.5685 22.1546 29.7194 21.968 29.7194Z" fill="#23273C"/>
<path d="M19.5813 29.7194C19.3948 29.7194 19.2422 29.5685 19.2422 29.384V21.5503C19.2422 21.3658 19.3948 21.2148 19.5813 21.2148C19.7679 21.2148 19.9205 21.3658 19.9205 21.5503V29.384C19.9205 29.5685 19.7679 29.7194 19.5813 29.7194Z" fill="#23273C"/>
<path d="M21.972 19.7042H17.1731C16.9866 19.7042 16.834 19.5532 16.834 19.3687C16.834 19.1842 16.9866 19.0332 17.1731 19.0332H21.972C22.1585 19.0332 22.3111 19.1842 22.3111 19.3687C22.3111 19.5532 22.1585 19.7042 21.972 19.7042Z" fill="#23273C"/>
<path d="M21.972 17.5382H17.1731C16.9866 17.5382 16.834 17.3872 16.834 17.2027C16.834 17.0182 16.9866 16.8672 17.1731 16.8672H21.972C22.1585 16.8672 22.3111 17.0182 22.3111 17.2027C22.3111 17.3872 22.1585 17.5382 21.972 17.5382Z" fill="#23273C"/>
<path d="M35.4107 15.4444H3.71805C3.53152 15.4444 3.37891 15.2934 3.37891 15.1089C3.37891 14.9244 3.53152 14.7734 3.71805 14.7734H35.4107C35.5973 14.7734 35.7499 14.9244 35.7499 15.1089C35.7499 15.2934 35.5973 15.4444 35.4107 15.4444Z" fill="#23273C"/>
<path d="M24.8137 29.7197C24.6272 29.7197 24.4746 29.5687 24.4746 29.3842V17.0718C24.4746 16.8873 24.6272 16.7363 24.8137 16.7363H29.2226C30.8844 16.7363 32.1901 17.5583 32.7157 18.917C33.2075 20.2254 32.8344 21.668 31.7661 22.6074C30.5961 23.6138 28.7139 23.5132 27.5608 22.3893C27.0521 21.8861 26.7638 21.148 26.7977 20.4099C26.8316 19.7222 27.1538 19.0847 27.6795 18.6486C28.1543 18.2628 28.8326 18.0615 29.46 18.1118C30.0365 18.1621 30.5283 18.4138 30.8674 18.8499C31.1387 19.1854 31.2744 19.6383 31.2235 20.108C31.1726 20.5777 30.9522 20.997 30.6131 21.2654C30.1722 21.6177 29.6465 21.7351 29.2056 21.5841C28.8156 21.4499 28.5273 21.148 28.4086 20.7119C28.3578 20.5273 28.4595 20.3428 28.646 20.3093C28.8326 20.2589 29.0191 20.3596 29.053 20.5441C29.1039 20.7454 29.2226 20.8796 29.4091 20.9467C29.6465 21.0138 29.9348 20.9467 30.1891 20.7454C30.3926 20.5944 30.5283 20.326 30.5622 20.0409C30.5961 19.7557 30.5113 19.4705 30.3587 19.286C30.0535 18.917 29.6804 18.8163 29.4091 18.7996C28.9513 18.7493 28.4595 18.9002 28.1204 19.1854C27.6117 19.6047 27.493 20.108 27.476 20.4602C27.4421 20.997 27.6625 21.5673 28.0356 21.9364C28.9343 22.8254 30.4096 22.9093 31.3083 22.1209C32.1731 21.3828 32.4614 20.2254 32.0714 19.1854C31.6474 18.0951 30.5961 17.4409 29.2226 17.4409H25.1529V29.401C25.1529 29.5687 25.0003 29.7197 24.8137 29.7197Z" fill="#23273C"/>
<path d="M18.3828 9.71774C18.2811 9.71774 18.1963 9.68419 18.1285 9.60032C12.8379 3.47767 6.05509 4.24929 4.66461 4.50091V7.40287C4.66461 7.58739 4.512 7.73836 4.32547 7.73836C4.13894 7.73836 3.98633 7.58739 3.98633 7.40287V4.21575C3.98633 4.06478 4.08807 3.93058 4.24068 3.89703C4.32547 3.88026 6.3264 3.41058 9.10735 3.82993C11.6679 4.21574 15.4154 5.44027 18.6372 9.18096C18.7559 9.31515 18.7389 9.53322 18.6033 9.65064C18.5355 9.70096 18.4676 9.71774 18.3828 9.71774Z" fill="#23273C"/>
<path d="M19.5921 9.41429C19.4056 9.41429 19.253 9.26332 19.253 9.0788V8.18976C16.0651 1.58066 9.43488 1.24517 7.90875 1.24517V3.82843C7.90875 4.01294 7.75614 4.16391 7.56961 4.16391C7.38308 4.16391 7.23047 4.01294 7.23047 3.82843V0.926462C7.23047 0.758718 7.36613 0.607749 7.5357 0.590975C7.62048 0.590975 9.70619 0.440005 12.2837 1.26195C14.6576 2.03357 17.9134 3.81165 19.8804 7.95492C19.8974 8.00524 19.9143 8.05557 19.9143 8.10589V9.0788C19.9313 9.26332 19.7787 9.41429 19.5921 9.41429Z" fill="#23273C"/>
<path d="M1.68289 11.4448C1.49636 11.4448 1.34375 11.2939 1.34375 11.1093V7.87189C1.34375 7.72092 1.46245 7.56995 1.61506 7.5364C1.98812 7.45253 10.721 5.708 17.4699 9.66675C17.6395 9.76739 17.6903 9.96868 17.5886 10.1197C17.4868 10.2874 17.2834 10.3377 17.1307 10.2371C11.2636 6.78155 3.56512 7.87189 2.03899 8.14028V11.0926C2.02203 11.2939 1.86942 11.4448 1.68289 11.4448Z" fill="#23273C"/>
<path d="M20.7712 9.72084C20.6864 9.72084 20.6186 9.68729 20.5508 9.63697C20.4151 9.51955 20.3982 9.30148 20.5169 9.16728C23.7387 5.44338 27.4862 4.20207 30.0467 3.81626C32.8277 3.3969 34.8286 3.86659 34.9134 3.88336C35.066 3.91691 35.1677 4.0511 35.1677 4.20207V7.37243C35.1677 7.55695 35.0151 7.70791 34.8286 7.70791C34.6421 7.70791 34.4895 7.55695 34.4895 7.37243V4.50401C33.082 4.26917 26.3162 3.49755 21.0256 9.60342C20.9578 9.68729 20.873 9.72084 20.7712 9.72084Z" fill="#23273C"/>
<path d="M19.5872 9.41959C19.4007 9.41959 19.248 9.26862 19.248 9.08411V8.11119C19.248 8.06087 19.265 8.01055 19.282 7.96022C21.249 3.81695 24.5047 2.03887 26.8787 1.26725C29.4562 0.445308 31.5419 0.579503 31.6267 0.596277C31.7962 0.613051 31.9319 0.747246 31.9319 0.931764V3.83373C31.9319 4.01825 31.7793 4.16922 31.5928 4.16922C31.4062 4.16922 31.2536 4.01825 31.2536 3.83373V1.25048C29.7275 1.25048 23.0973 1.58596 19.9094 8.17829V9.06733C19.9263 9.26862 19.7737 9.41959 19.5872 9.41959Z" fill="#23273C"/>
<path d="M37.4956 11.4488C37.3091 11.4488 37.1565 11.2978 37.1565 11.1133V8.16104C35.6304 7.89265 27.9319 6.80232 22.0647 10.2578C21.8952 10.3585 21.6917 10.2914 21.6069 10.1404C21.5051 9.97267 21.556 9.77138 21.7256 9.68751C28.4745 5.72876 37.2074 7.49006 37.5804 7.55716C37.733 7.59071 37.8517 7.72491 37.8517 7.89265V11.1301C37.8348 11.2978 37.6821 11.4488 37.4956 11.4488Z" fill="#23273C"/>
<path d="M38.1024 13.007H1.05134C0.474797 13.007 0 12.5541 0 11.9838C0 11.4134 0.474797 10.9438 1.05134 10.9438H16.4653C16.6857 9.8031 17.9914 8.91406 19.5854 8.91406C21.1624 8.91406 22.485 9.8031 22.7055 10.9438H38.1194C38.6959 10.9438 39.1707 11.4134 39.1707 11.9838C39.1707 12.5541 38.6959 13.007 38.1024 13.007ZM1.05134 11.6147C0.847851 11.6147 0.678281 11.7657 0.678281 11.9838C0.678281 12.1851 0.847851 12.3528 1.05134 12.3528H38.1024C38.3059 12.3528 38.4755 12.1851 38.4755 11.9838C38.4755 11.7825 38.3059 11.6147 38.1024 11.6147H22.3833C22.1967 11.6147 22.0441 11.4638 22.0441 11.2792C22.0441 10.3399 20.9419 9.58504 19.5854 9.58504C18.2288 9.58504 17.1266 10.3399 17.1266 11.2792C17.1266 11.4638 16.974 11.6147 16.7875 11.6147H1.05134Z" fill="#F77761"/>
<path d="M46.4446 3.32589H48.8732V11.6087H53.1677V13.6242H46.4375L46.4446 3.32589Z" fill="#23273C"/>
<path d="M56.8231 6.26014V13.6242H54.5085V6.26014H56.8231ZM56.8302 3.32589V5.43399H54.5013V3.32589H56.8302Z" fill="#23273C"/>
<path d="M62.8281 13.7667C62.5005 13.7667 62.2109 13.7239 61.9592 13.6385C61.7076 13.553 61.4892 13.4367 61.304 13.2895C61.1188 13.1376 60.9645 12.9619 60.8411 12.7625C60.7176 12.5583 60.6179 12.3423 60.542 12.1144L60.2571 13.6242H58.5265V3.04102H60.955V7.17887C61.0547 7.0032 61.1782 6.85126 61.3254 6.72306C61.4773 6.59012 61.6459 6.48092 61.831 6.39545C62.021 6.30524 62.2204 6.2364 62.4293 6.18892C62.6382 6.14144 62.8566 6.1177 63.0845 6.1177C63.9914 6.1177 64.7012 6.45243 65.214 7.12189C65.7267 7.78661 65.9831 8.71246 65.9831 9.89946C65.9831 10.6781 65.8621 11.3571 65.6199 11.9363C65.3778 12.5156 65.0217 12.9666 64.5516 13.2895C64.0863 13.6076 63.5118 13.7667 62.8281 13.7667ZM62.2726 12.0503C62.6572 12.0503 62.9777 11.8889 63.2341 11.566C63.4952 11.2384 63.6258 10.6781 63.6258 9.88521C63.6258 9.15877 63.4976 8.63887 63.2412 8.3255C62.9895 8.00739 62.6643 7.84833 62.2655 7.84833C61.9901 7.84833 61.7527 7.91955 61.5533 8.06199C61.3586 8.20443 61.2091 8.42758 61.1046 8.73145C61.0049 9.03058 60.955 9.41516 60.955 9.88521C60.955 10.6829 61.069 11.2431 61.2969 11.566C61.5248 11.8889 61.85 12.0503 62.2726 12.0503Z" fill="#23273C"/>
<path d="M67.2063 13.6242V6.26014H69.5423V8.14745C69.6563 7.76287 69.8201 7.41864 70.0337 7.11477C70.2522 6.80615 70.5204 6.56401 70.8385 6.38833C71.1566 6.20791 71.5246 6.1177 71.9424 6.1177C71.9947 6.1177 72.0398 6.12007 72.0777 6.12482C72.1205 6.12482 72.1466 6.12957 72.1561 6.13906V8.43945C72.1324 8.42996 72.1015 8.42284 72.0635 8.41809C72.0303 8.41334 71.9947 8.41097 71.9567 8.41097C71.4914 8.36349 71.1068 8.37061 70.8029 8.43233C70.5038 8.49406 70.2664 8.59376 70.0907 8.73145C69.9198 8.86915 69.7987 9.03295 69.7275 9.22287C69.661 9.41279 69.6278 9.61932 69.6278 9.84248V13.6242H67.2063Z" fill="#23273C"/>
<path d="M75.2486 13.7667C74.788 13.7667 74.3654 13.6788 73.9809 13.5032C73.601 13.3227 73.2972 13.0616 73.0693 12.7197C72.8461 12.3779 72.7345 11.9601 72.7345 11.4663C72.7345 10.6639 73.0431 10.0466 73.6604 9.61458C74.2824 9.18251 75.2533 8.96411 76.5733 8.95936L77.3211 8.95224V8.57477C77.3211 8.28515 77.238 8.06911 77.0718 7.92667C76.9104 7.77949 76.654 7.70827 76.3026 7.71302C76.0605 7.71776 75.8136 7.77711 75.5619 7.89106C75.3103 8.00027 75.1299 8.20443 75.0207 8.50355H73.0336C73.0621 7.94804 73.2259 7.49461 73.5251 7.14326C73.8289 6.79191 74.2301 6.53315 74.7287 6.36697C75.232 6.20079 75.7946 6.1177 76.4166 6.1177C77.219 6.1177 77.8552 6.21503 78.3253 6.4097C78.7953 6.59962 79.1324 6.86788 79.3366 7.21448C79.5407 7.55633 79.6428 7.95991 79.6428 8.42521V13.6242H77.6273L77.4208 12.4064C77.1834 12.9239 76.889 13.28 76.5376 13.4747C76.191 13.6693 75.7614 13.7667 75.2486 13.7667ZM76.089 12.207C76.2504 12.207 76.4047 12.1785 76.5519 12.1215C76.6991 12.0645 76.8297 11.9862 76.9436 11.8865C77.0576 11.782 77.1478 11.6681 77.2142 11.5446C77.2807 11.4212 77.3163 11.2882 77.3211 11.1458V10.1416L76.7228 10.1487C76.4759 10.1487 76.2195 10.182 75.9537 10.2484C75.6925 10.3149 75.4717 10.4265 75.2913 10.5832C75.1109 10.7351 75.0207 10.9464 75.0207 11.217C75.0207 11.5256 75.1251 11.7678 75.334 11.9435C75.5477 12.1191 75.7993 12.207 76.089 12.207Z" fill="#23273C"/>
<path d="M81.3111 13.6242V6.26014H83.6471V8.14745C83.7611 7.76287 83.9249 7.41864 84.1386 7.11477C84.357 6.80615 84.6252 6.56401 84.9433 6.38833C85.2614 6.20791 85.6294 6.1177 86.0472 6.1177C86.0995 6.1177 86.1446 6.12007 86.1826 6.12482C86.2253 6.12482 86.2514 6.12957 86.2609 6.13906V8.43945C86.2372 8.42996 86.2063 8.42284 86.1683 8.41809C86.1351 8.41334 86.0995 8.41097 86.0615 8.41097C85.5962 8.36349 85.2116 8.37061 84.9077 8.43233C84.6086 8.49406 84.3712 8.59376 84.1955 8.73145C84.0246 8.86915 83.9035 9.03295 83.8323 9.22287C83.7658 9.41279 83.7326 9.61932 83.7326 9.84248V13.6242H81.3111Z" fill="#23273C"/>
<path d="M88.8679 15.9745C88.3313 15.9745 87.9468 15.927 87.7141 15.832C87.4862 15.7371 87.3722 15.6896 87.3722 15.6896V14.1513L88.0916 14.1869C88.4334 14.2106 88.7041 14.1987 88.9035 14.1513C89.1029 14.1038 89.2501 14.0373 89.345 13.9518C89.4447 13.8711 89.5112 13.788 89.5444 13.7026C89.5824 13.6219 89.6085 13.5649 89.6228 13.5316L89.7082 13.2539L86.8452 6.26014H89.2382L90.8193 10.6615L92.4288 6.26014H94.8076L91.8733 13.4319C91.5884 14.1299 91.2893 14.6617 90.976 15.0273C90.6673 15.3976 90.3374 15.6469 89.986 15.7751C89.6394 15.908 89.2667 15.9745 88.8679 15.9745Z" fill="#23273C"/>
<path d="M103.14 3.18345C103.938 3.18345 104.648 3.34251 105.27 3.66063C105.897 3.97399 106.402 4.40843 106.787 4.96394C107.171 5.51471 107.402 6.14381 107.478 6.85126H104.935C104.878 6.50941 104.769 6.21266 104.607 5.96102C104.451 5.70463 104.242 5.50521 103.981 5.36277C103.724 5.22033 103.418 5.14911 103.062 5.14911C102.649 5.14911 102.288 5.25357 101.979 5.46248C101.671 5.66664 101.431 6.0085 101.26 6.48804C101.094 6.96284 101.011 7.59906 101.011 8.39672C101.011 9.6122 101.196 10.4835 101.566 11.0105C101.942 11.5375 102.44 11.801 103.062 11.801C103.418 11.801 103.724 11.7156 103.981 11.5446C104.242 11.3737 104.451 11.1458 104.607 10.8609C104.769 10.5713 104.878 10.2579 104.935 9.92082H107.478C107.411 10.4289 107.29 10.9155 107.114 11.3808C106.943 11.8414 106.694 12.2521 106.367 12.6129C106.039 12.9738 105.612 13.2563 105.085 13.4604C104.562 13.6646 103.914 13.7667 103.14 13.7667C102.162 13.7667 101.315 13.5388 100.598 13.083C99.8809 12.6224 99.3254 11.9862 98.9313 11.1743C98.5372 10.3624 98.3402 9.42466 98.3402 8.36111C98.3402 7.30232 98.5348 6.38596 98.9242 5.61204C99.3135 4.83812 99.8666 4.23988 100.584 3.81731C101.305 3.39474 102.158 3.18345 103.14 3.18345Z" fill="#23273C"/>
<path d="M112.247 13.7667C111.507 13.7667 110.863 13.61 110.317 13.2966C109.771 12.9785 109.346 12.537 109.042 11.9719C108.743 11.4022 108.594 10.7398 108.594 9.98492C108.594 9.21575 108.746 8.54154 109.049 7.96228C109.358 7.37828 109.788 6.92485 110.339 6.60199C110.889 6.27913 111.528 6.1177 112.254 6.1177C113.005 6.1177 113.65 6.2815 114.192 6.60911C114.738 6.93197 115.158 7.38541 115.452 7.96941C115.746 8.54866 115.894 9.2205 115.894 9.98492C115.894 10.7209 115.746 11.3737 115.452 11.9435C115.162 12.5085 114.745 12.9548 114.199 13.2824C113.653 13.6052 113.002 13.7667 112.247 13.7667ZM112.254 11.9862C112.587 11.9862 112.845 11.8841 113.031 11.6799C113.216 11.471 113.346 11.2075 113.422 10.8894C113.498 10.5665 113.536 10.2389 113.536 9.90658C113.536 9.57897 113.501 9.25848 113.429 8.94511C113.358 8.63175 113.23 8.37536 113.045 8.17594C112.86 7.97178 112.596 7.8697 112.254 7.8697C111.922 7.8697 111.661 7.96941 111.471 8.16882C111.286 8.36349 111.153 8.6175 111.072 8.93087C110.996 9.23949 110.958 9.56472 110.958 9.90658C110.958 10.2294 110.994 10.5523 111.065 10.8752C111.141 11.1933 111.272 11.4592 111.457 11.6728C111.647 11.8817 111.912 11.9862 112.254 11.9862Z" fill="#23273C"/>
<path d="M119.752 13.7667C119.434 13.7667 119.111 13.7144 118.784 13.61C118.456 13.5055 118.155 13.3536 117.879 13.1542C117.604 12.95 117.381 12.7031 117.21 12.4135C117.044 12.1191 116.961 11.782 116.961 11.4022V6.26014H119.389V11.0746C119.389 11.35 119.484 11.5802 119.674 11.7654C119.864 11.9458 120.137 12.036 120.493 12.036C120.835 12.036 121.106 11.9482 121.305 11.7725C121.504 11.5921 121.604 11.3547 121.604 11.0603V6.26014H124.011V13.6242H122.202L121.917 12.1357C121.827 12.5963 121.661 12.9453 121.419 13.1827C121.177 13.4153 120.904 13.5696 120.6 13.6456C120.301 13.7263 120.018 13.7667 119.752 13.7667Z" fill="#23273C"/>
<path d="M125.545 13.6242V6.26014H127.881V8.14745C127.995 7.76287 128.159 7.41864 128.373 7.11477C128.591 6.80615 128.859 6.56401 129.177 6.38833C129.495 6.20791 129.863 6.1177 130.281 6.1177C130.333 6.1177 130.379 6.12007 130.417 6.12482C130.459 6.12482 130.485 6.12957 130.495 6.13906V8.43945C130.471 8.42996 130.44 8.42284 130.402 8.41809C130.369 8.41334 130.333 8.41097 130.295 8.41097C129.83 8.36349 129.446 8.37061 129.142 8.43233C128.843 8.49406 128.605 8.59376 128.43 8.73145C128.259 8.86915 128.138 9.03295 128.066 9.22287C128 9.41279 127.967 9.61932 127.967 9.84248V13.6242H125.545Z" fill="#23273C"/>
<path d="M134.484 13.7667C133.971 13.7667 133.47 13.6812 132.981 13.5103C132.492 13.3394 132.074 13.0663 131.728 12.6913C131.381 12.3162 131.158 11.8271 131.058 11.2241H133.138C133.2 11.4758 133.311 11.6681 133.473 11.801C133.634 11.934 133.807 12.0242 133.993 12.0717C134.178 12.1191 134.337 12.1429 134.47 12.1429C134.821 12.1429 135.106 12.093 135.324 11.9933C135.543 11.8936 135.652 11.7417 135.652 11.5375C135.652 11.3666 135.583 11.2336 135.446 11.1387C135.313 11.039 135.08 10.9606 134.748 10.9037L133.551 10.6829C132.877 10.5547 132.331 10.3196 131.913 9.9778C131.5 9.63119 131.291 9.14215 131.286 8.51067C131.282 8.05962 131.403 7.65367 131.65 7.29282C131.896 6.93198 132.26 6.6471 132.739 6.43819C133.219 6.22453 133.807 6.1177 134.505 6.1177C135.46 6.1177 136.219 6.32661 136.784 6.74443C137.349 7.16225 137.634 7.73913 137.639 8.47506H135.645C135.593 8.22342 135.457 8.0335 135.239 7.90531C135.025 7.77237 134.769 7.70589 134.47 7.70589C134.166 7.70589 133.91 7.75812 133.701 7.86258C133.496 7.96228 133.394 8.11422 133.394 8.31838C133.394 8.47506 133.485 8.60089 133.665 8.69585C133.845 8.7908 134.133 8.87627 134.527 8.95224L135.602 9.17302C136.044 9.28222 136.402 9.42941 136.678 9.61458C136.953 9.795 137.164 9.99204 137.311 10.2057C137.463 10.4194 137.568 10.633 137.625 10.8467C137.682 11.0556 137.71 11.2408 137.71 11.4022C137.71 11.9102 137.57 12.3399 137.29 12.6913C137.01 13.0426 136.625 13.3109 136.136 13.496C135.652 13.6765 135.101 13.7667 134.484 13.7667Z" fill="#23273C"/>
<path d="M141.047 10.4977C141.043 10.8348 141.095 11.1197 141.204 11.3523C141.313 11.5802 141.467 11.7535 141.667 11.8722C141.866 11.9909 142.099 12.0503 142.365 12.0503C142.669 12.0503 142.937 11.9886 143.17 11.8651C143.407 11.7369 143.58 11.5161 143.69 11.2028H145.855C145.774 11.7393 145.56 12.1998 145.214 12.5844C144.872 12.9643 144.454 13.2563 143.96 13.4604C143.466 13.6646 142.956 13.7667 142.429 13.7667C141.679 13.7667 141.019 13.6124 140.449 13.3037C139.884 12.9951 139.442 12.5607 139.124 12.0004C138.811 11.4402 138.654 10.7826 138.654 10.0277C138.654 9.31071 138.799 8.65786 139.089 8.06911C139.378 7.47562 139.796 7.00319 140.342 6.65184C140.888 6.29575 141.546 6.1177 142.315 6.1177C143.094 6.1177 143.744 6.2815 144.266 6.60911C144.789 6.93197 145.18 7.37828 145.442 7.94804C145.707 8.51305 145.84 9.16115 145.84 9.89233V10.4977H141.047ZM141.04 9.1018H143.59C143.59 8.85965 143.542 8.63887 143.447 8.43945C143.352 8.23529 143.21 8.07386 143.02 7.95516C142.83 7.83646 142.595 7.77711 142.315 7.77711C142.059 7.77711 141.835 7.84121 141.646 7.96941C141.456 8.09285 141.306 8.25666 141.197 8.46082C141.088 8.66024 141.035 8.87389 141.04 9.1018Z" fill="#23273C"/>
<path d="M46.293 26.0484V19.7105H50.2724L50.2681 20.4249H47.1046V22.4937H49.9539V23.2038H47.1002V25.3164L50.3553 25.3252V26.0484H46.293Z" fill="#F77761"/>
<path d="M51.4281 26.0484V21.5163H52.2091V22.1737C52.2818 22.0481 52.3822 21.9298 52.5102 21.8187C52.6411 21.7077 52.7982 21.6186 52.9814 21.5514C53.1676 21.4841 53.3814 21.4505 53.6229 21.4505C53.9079 21.4505 54.1697 21.5075 54.4083 21.6215C54.6497 21.7354 54.8417 21.9137 54.9843 22.1562C55.1297 22.3958 55.2024 22.7056 55.2024 23.0854V26.0484H54.3952V23.1643C54.3952 22.8107 54.3021 22.5492 54.1159 22.3797C53.9327 22.2073 53.6941 22.1211 53.4003 22.1211C53.1967 22.1211 53.0062 22.1548 52.8287 22.222C52.6513 22.2862 52.5073 22.3856 52.3967 22.52C52.2862 22.6515 52.2309 22.8181 52.2309 23.0197V26.0484H51.4281Z" fill="#F77761"/>
<path d="M56.4648 26.0484V19.5352H57.2502V22.1825C57.3258 22.0569 57.4276 21.94 57.5556 21.8319C57.6836 21.7208 57.8392 21.6317 58.0225 21.5645C58.2058 21.4944 58.4181 21.4593 58.6596 21.4593C58.9534 21.4593 59.2195 21.5148 59.4581 21.6259C59.6966 21.734 59.8857 21.8888 60.0253 22.0905C60.165 22.2921 60.2348 22.5317 60.2348 22.8093V26.0484H59.4275V22.9715C59.4275 22.6997 59.3344 22.4908 59.1483 22.3447C58.965 22.1957 58.725 22.1211 58.4283 22.1211C58.2276 22.1211 58.0385 22.1548 57.8611 22.222C57.6836 22.2862 57.5396 22.3856 57.4291 22.52C57.3214 22.6515 57.2676 22.8195 57.2676 23.0241V26.0484H56.4648Z" fill="#F77761"/>
<path d="M62.7238 26.136C62.4329 26.136 62.1755 26.0849 61.9515 25.9826C61.7275 25.8774 61.5515 25.7269 61.4235 25.5312C61.2984 25.3354 61.2359 25.0987 61.2359 24.8211C61.2359 24.3185 61.4104 23.9445 61.7595 23.699C62.1086 23.4536 62.6686 23.3221 63.4394 23.3046L64.2467 23.2827V22.9276C64.2467 22.65 64.1638 22.4309 63.998 22.2702C63.8322 22.1065 63.5747 22.0247 63.2256 22.0247C62.9667 22.0276 62.7384 22.089 62.5406 22.2088C62.3457 22.3286 62.2191 22.5244 62.161 22.7961H61.4497C61.4672 22.501 61.5501 22.2526 61.6984 22.051C61.8468 21.8465 62.0533 21.6916 62.318 21.5864C62.5857 21.4812 62.9013 21.4286 63.2649 21.4286C63.6576 21.4286 63.9834 21.4841 64.2423 21.5952C64.5041 21.7062 64.699 21.8699 64.827 22.0861C64.9579 22.3023 65.0234 22.5682 65.0234 22.8838V26.0484H64.3339L64.2772 25.198C64.1027 25.5516 63.8802 25.7971 63.6096 25.9344C63.342 26.0688 63.0467 26.136 62.7238 26.136ZM62.9682 25.5531C63.1195 25.5531 63.2693 25.5253 63.4176 25.4698C63.5689 25.4143 63.7071 25.3398 63.8322 25.2463C63.9572 25.1498 64.0561 25.0432 64.1289 24.9263C64.2045 24.8065 64.2438 24.6838 64.2467 24.5581V23.7823L63.5747 23.7955C63.2315 23.8013 62.9435 23.8364 62.7108 23.9007C62.4809 23.9649 62.3079 24.0658 62.1915 24.2031C62.0781 24.3404 62.0213 24.5201 62.0213 24.7422C62.0213 24.9964 62.1086 25.1951 62.2831 25.3383C62.4606 25.4815 62.6889 25.5531 62.9682 25.5531Z" fill="#F77761"/>
<path d="M66.4018 26.0484V21.5163H67.1829V22.1737C67.2556 22.0481 67.356 21.9298 67.4839 21.8187C67.6148 21.7077 67.7719 21.6186 67.9552 21.5514C68.1414 21.4841 68.3552 21.4505 68.5966 21.4505C68.8817 21.4505 69.1435 21.5075 69.382 21.6215C69.6235 21.7354 69.8155 21.9137 69.958 22.1562C70.1035 22.3958 70.1762 22.7056 70.1762 23.0854V26.0484H69.369V23.1643C69.369 22.8107 69.2759 22.5492 69.0897 22.3797C68.9064 22.2073 68.6679 22.1211 68.3741 22.1211C68.1705 22.1211 67.9799 22.1548 67.8025 22.222C67.625 22.2862 67.481 22.3856 67.3705 22.52C67.26 22.6515 67.2047 22.8181 67.2047 23.0197V26.0484H66.4018Z" fill="#F77761"/>
<path d="M73.2363 21.4286C73.5591 21.4286 73.85 21.4915 74.1089 21.6171C74.3678 21.7398 74.5787 21.9151 74.7416 22.1431C74.9074 22.371 75.0107 22.6398 75.0514 22.9495H74.3358C74.3097 22.7918 74.2486 22.6471 74.1526 22.5156C74.0595 22.3841 73.9359 22.2789 73.7817 22.2C73.6275 22.1211 73.4472 22.0817 73.2406 22.0817C72.8537 22.0817 72.5396 22.222 72.2981 22.5025C72.0567 22.783 71.9359 23.2125 71.9359 23.7911C71.9359 24.3141 72.0465 24.7334 72.2676 25.049C72.4916 25.3617 72.8203 25.518 73.2537 25.518C73.4602 25.518 73.6391 25.4786 73.7904 25.3997C73.9446 25.3178 74.0682 25.2112 74.1613 25.0797C74.2544 24.9453 74.314 24.8021 74.3402 24.6502H75.0427C75.0049 24.9541 74.9031 25.217 74.7373 25.4391C74.5715 25.6612 74.3591 25.8336 74.1002 25.9563C73.8442 26.0761 73.5562 26.136 73.2363 26.136C72.8319 26.136 72.4727 26.0469 72.1585 25.8686C71.8472 25.6904 71.6029 25.4274 71.4254 25.0797C71.248 24.732 71.1593 24.3054 71.1593 23.7999C71.1593 23.3265 71.2393 22.913 71.3992 22.5595C71.5621 22.203 71.7978 21.9254 72.1061 21.7267C72.4174 21.528 72.7941 21.4286 73.2363 21.4286Z" fill="#F77761"/>
<path d="M76.7188 23.9708C76.7188 24.2571 76.7654 24.5172 76.8584 24.751C76.9544 24.9818 77.0984 25.1659 77.2904 25.3032C77.4853 25.4406 77.7282 25.5092 78.0191 25.5092C78.3071 25.5092 78.5544 25.442 78.7609 25.3076C78.9704 25.1732 79.1042 24.9789 79.1623 24.7247H79.9259C79.8707 25.0315 79.7485 25.2901 79.5594 25.5005C79.3703 25.7109 79.142 25.8701 78.8744 25.9782C78.6067 26.0834 78.3275 26.136 78.0366 26.136C77.6148 26.136 77.2439 26.044 76.9239 25.8599C76.6039 25.6758 76.3537 25.4114 76.1734 25.0666C75.993 24.7218 75.9029 24.3083 75.9029 23.8262C75.9029 23.3499 75.9843 22.932 76.1472 22.5726C76.3101 22.2132 76.5457 21.9327 76.8541 21.7311C77.1653 21.5294 77.5391 21.4286 77.9755 21.4286C78.4002 21.4286 78.7595 21.5207 79.0533 21.7048C79.3471 21.8888 79.5696 22.1489 79.7209 22.4849C79.875 22.8181 79.9521 23.214 79.9521 23.6727V23.9708H76.7188ZM76.7232 23.4229H79.1754C79.1754 23.1629 79.1318 22.9291 79.0445 22.7216C78.9573 22.5112 78.8235 22.3461 78.6431 22.2263C78.4656 22.1036 78.2417 22.0423 77.9711 22.0423C77.689 22.0423 77.4548 22.1109 77.2686 22.2483C77.0853 22.3827 76.9472 22.5565 76.8541 22.7698C76.7639 22.9802 76.7203 23.1979 76.7232 23.4229Z" fill="#F77761"/>
<path d="M83.4143 27.4948C83.1496 27.4948 82.9678 27.4758 82.8689 27.4378C82.77 27.3998 82.7205 27.3808 82.7205 27.3808V26.8548L83.1787 26.8636C83.3474 26.8694 83.487 26.8578 83.5976 26.8285C83.7081 26.7993 83.7968 26.7599 83.8638 26.7102C83.9307 26.6605 83.9816 26.605 84.0165 26.5436C84.0543 26.4823 84.0848 26.4238 84.1081 26.3683L84.2652 25.9388L82.5024 21.5163H83.3183L84.6492 25.014L85.9713 21.5163H86.7611L84.8586 26.3902C84.7423 26.6766 84.6114 26.9001 84.4659 27.0608C84.3234 27.2215 84.1634 27.334 83.9859 27.3983C83.8114 27.4626 83.6209 27.4948 83.4143 27.4948Z" fill="#F77761"/>
<path d="M89.2539 26.136C88.8379 26.136 88.4743 26.0469 88.163 25.8686C87.8518 25.6875 87.6103 25.423 87.4387 25.0753C87.2671 24.7276 87.1813 24.3024 87.1813 23.7999C87.1813 23.3265 87.2612 22.9116 87.4212 22.5551C87.5812 22.1986 87.8154 21.9225 88.1238 21.7267C88.435 21.528 88.8117 21.4286 89.2539 21.4286C89.6699 21.4286 90.0306 21.5207 90.336 21.7048C90.6444 21.8859 90.8829 22.1533 91.0516 22.5069C91.2203 22.8604 91.3047 23.2914 91.3047 23.7999C91.3047 24.2615 91.2262 24.6677 91.0691 25.0183C90.9149 25.369 90.6851 25.6437 90.3797 25.8423C90.0771 26.0381 89.7019 26.136 89.2539 26.136ZM89.2539 25.4961C89.5244 25.4961 89.7528 25.4274 89.9389 25.2901C90.1251 25.1528 90.2662 24.9555 90.3622 24.6984C90.4582 24.4412 90.5062 24.1359 90.5062 23.7823C90.5062 23.458 90.464 23.1672 90.3797 22.9101C90.2953 22.65 90.16 22.444 89.9739 22.2921C89.7906 22.1401 89.5506 22.0642 89.2539 22.0642C88.9804 22.0642 88.7492 22.1328 88.5601 22.2702C88.371 22.4046 88.227 22.6004 88.1281 22.8575C88.0321 23.1146 87.9841 23.4229 87.9841 23.7823C87.9841 24.1008 88.0278 24.3901 88.115 24.6502C88.2023 24.9102 88.339 25.1162 88.5252 25.2682C88.7114 25.4201 88.9543 25.4961 89.2539 25.4961Z" fill="#F77761"/>
<path d="M93.9508 26.136C93.7152 26.1331 93.4926 26.0995 93.2832 26.0352C93.0766 25.968 92.8934 25.8701 92.7334 25.7415C92.5734 25.613 92.4469 25.4537 92.3538 25.2638C92.2636 25.0709 92.2185 24.8474 92.2185 24.5932V21.5163H93.0257V24.5099C93.0257 24.805 93.1159 25.0446 93.2963 25.2287C93.4795 25.4128 93.7544 25.5049 94.121 25.5049C94.4526 25.5049 94.7188 25.4187 94.9195 25.2463C95.1231 25.0709 95.2249 24.8109 95.2249 24.4661V21.5163H96.0278V26.0484H95.3864L95.3035 25.1805C95.2482 25.4084 95.1536 25.5925 95.0198 25.7328C94.8889 25.873 94.7304 25.9768 94.5442 26.044C94.361 26.1083 94.1631 26.1389 93.9508 26.136Z" fill="#F77761"/>
<path d="M97.3379 26.0484V21.5163H98.1059V22.3885C98.1815 22.1723 98.2877 21.994 98.4244 21.8538C98.5611 21.7106 98.7168 21.604 98.8913 21.5338C99.0687 21.4637 99.252 21.4286 99.4411 21.4286C99.508 21.4286 99.5734 21.433 99.6374 21.4418C99.7014 21.4505 99.7509 21.4652 99.7858 21.4856V22.2702C99.7422 22.2497 99.6854 22.2366 99.6156 22.2307C99.5487 22.222 99.492 22.2176 99.4455 22.2176C99.2651 22.2059 99.0964 22.2176 98.9393 22.2526C98.7822 22.2848 98.644 22.3418 98.5248 22.4236C98.4055 22.5054 98.311 22.6135 98.2411 22.7479C98.1742 22.8794 98.1408 23.0401 98.1408 23.2301V26.0484H97.3379Z" fill="#F77761"/>
<path d="M106.695 26.0484H105.839L104.426 23.7736L103.535 24.6984V26.0484H102.733V19.5352H103.535V23.7823L105.656 21.5163H106.581L104.954 23.2432L106.695 26.0484Z" fill="#F77761"/>
<path d="M107.658 26.0484V21.5163H108.44V22.1737C108.512 22.0481 108.613 21.9298 108.741 21.8187C108.872 21.7077 109.029 21.6186 109.212 21.5514C109.398 21.4841 109.612 21.4505 109.853 21.4505C110.138 21.4505 110.4 21.5075 110.639 21.6215C110.88 21.7354 111.072 21.9137 111.215 22.1562C111.36 22.3958 111.433 22.7056 111.433 23.0854V26.0484H110.626V23.1643C110.626 22.8107 110.533 22.5492 110.346 22.3797C110.163 22.2073 109.925 22.1211 109.631 22.1211C109.427 22.1211 109.237 22.1548 109.059 22.222C108.882 22.2862 108.738 22.3856 108.627 22.52C108.517 22.6515 108.461 22.8181 108.461 23.0197V26.0484H107.658Z" fill="#F77761"/>
<path d="M114.489 26.136C114.073 26.136 113.709 26.0469 113.398 25.8686C113.086 25.6875 112.845 25.423 112.673 25.0753C112.502 24.7276 112.416 24.3024 112.416 23.7999C112.416 23.3265 112.496 22.9116 112.656 22.5551C112.816 22.1986 113.05 21.9225 113.358 21.7267C113.67 21.528 114.046 21.4286 114.489 21.4286C114.905 21.4286 115.265 21.5207 115.571 21.7048C115.879 21.8859 116.118 22.1533 116.286 22.5069C116.455 22.8604 116.539 23.2914 116.539 23.7999C116.539 24.2615 116.461 24.6677 116.304 25.0183C116.15 25.369 115.92 25.6437 115.614 25.8423C115.312 26.0381 114.937 26.136 114.489 26.136ZM114.489 25.4961C114.759 25.4961 114.987 25.4274 115.174 25.2901C115.36 25.1528 115.501 24.9555 115.597 24.6984C115.693 24.4412 115.741 24.1359 115.741 23.7823C115.741 23.458 115.699 23.1672 115.614 22.9101C115.53 22.65 115.395 22.444 115.209 22.2921C115.025 22.1401 114.785 22.0642 114.489 22.0642C114.215 22.0642 113.984 22.1328 113.795 22.2702C113.606 22.4046 113.462 22.6004 113.363 22.8575C113.267 23.1146 113.219 23.4229 113.219 23.7823C113.219 24.1008 113.262 24.3901 113.35 24.6502C113.437 24.9102 113.574 25.1162 113.76 25.2682C113.946 25.4201 114.189 25.4961 114.489 25.4961Z" fill="#F77761"/>
<path d="M123.368 21.5163L122.002 26.0484H121.208L120.178 22.7041L119.201 26.0484H118.411L117.019 21.5163H117.765L118.799 25.0008H118.869L119.886 21.5163H120.497L121.553 24.992H121.623L122.613 21.5163H123.368Z" fill="#F77761"/>
<path d="M125.424 26.1053C125.18 26.1053 124.982 26.0717 124.831 26.0045C124.683 25.9373 124.568 25.8467 124.486 25.7328C124.408 25.6188 124.354 25.4888 124.325 25.3427C124.299 25.1937 124.286 25.0403 124.286 24.8825V19.5352H125.08V24.8036C125.08 25.0315 125.123 25.2024 125.211 25.3164C125.301 25.4303 125.426 25.4932 125.586 25.5049L125.83 25.5092V26.0352C125.763 26.0557 125.693 26.0717 125.621 26.0834C125.548 26.098 125.483 26.1053 125.424 26.1053Z" fill="#F77761"/>
<path d="M127.393 23.9708C127.393 24.2571 127.439 24.5172 127.532 24.751C127.628 24.9818 127.772 25.1659 127.964 25.3032C128.159 25.4406 128.402 25.5092 128.693 25.5092C128.981 25.5092 129.228 25.442 129.435 25.3076C129.644 25.1732 129.778 24.9789 129.836 24.7247H130.6C130.545 25.0315 130.422 25.2901 130.233 25.5005C130.044 25.7109 129.816 25.8701 129.548 25.9782C129.281 26.0834 129.001 26.136 128.71 26.136C128.289 26.136 127.918 26.044 127.598 25.8599C127.278 25.6758 127.028 25.4114 126.847 25.0666C126.667 24.7218 126.577 24.3083 126.577 23.8262C126.577 23.3499 126.658 22.932 126.821 22.5726C126.984 22.2132 127.22 21.9327 127.528 21.7311C127.839 21.5294 128.213 21.4286 128.649 21.4286C129.074 21.4286 129.433 21.5207 129.727 21.7048C130.021 21.8888 130.243 22.1489 130.395 22.4849C130.549 22.8181 130.626 23.214 130.626 23.6727V23.9708H127.393ZM127.397 23.4229H129.849C129.849 23.1629 129.806 22.9291 129.718 22.7216C129.631 22.5112 129.497 22.3461 129.317 22.2263C129.14 22.1036 128.916 22.0423 128.645 22.0423C128.363 22.0423 128.129 22.1109 127.942 22.2483C127.759 22.3827 127.621 22.5565 127.528 22.7698C127.438 22.9802 127.394 23.1979 127.397 23.4229Z" fill="#F77761"/>
<path d="M133.362 26.136C132.777 26.136 132.313 25.9344 131.97 25.5312C131.626 25.1279 131.455 24.5391 131.455 23.7648C131.455 23.2943 131.523 22.8838 131.66 22.5332C131.8 22.1825 132.006 21.9108 132.28 21.7179C132.553 21.5251 132.893 21.4286 133.301 21.4286C133.516 21.4286 133.706 21.4564 133.872 21.5119C134.041 21.5674 134.186 21.6376 134.309 21.7223C134.431 21.807 134.53 21.8947 134.605 21.9853C134.684 22.0759 134.742 22.1591 134.78 22.2351V19.5352H135.591V26.0484H134.976L134.889 25.1191C134.86 25.2068 134.813 25.3091 134.749 25.426C134.685 25.5399 134.595 25.6524 134.479 25.7635C134.362 25.8716 134.213 25.9607 134.029 26.0308C133.849 26.1009 133.626 26.136 133.362 26.136ZM133.506 25.5136C133.962 25.5136 134.288 25.3748 134.483 25.0972C134.681 24.8167 134.78 24.3594 134.78 23.7253C134.777 23.3718 134.732 23.0708 134.645 22.8224C134.56 22.5741 134.426 22.3856 134.243 22.257C134.063 22.1255 133.823 22.0598 133.523 22.0598C133.151 22.0598 132.848 22.1927 132.616 22.4586C132.383 22.7245 132.266 23.1468 132.266 23.7253C132.266 24.2922 132.371 24.732 132.581 25.0446C132.793 25.3573 133.101 25.5136 133.506 25.5136Z" fill="#F77761"/>
<path d="M138.81 27.5474C138.1 27.5474 137.547 27.4436 137.151 27.2362C136.759 27.0316 136.562 26.7379 136.562 26.3552C136.562 26.1915 136.6 26.0527 136.676 25.9388C136.752 25.8219 136.842 25.7255 136.946 25.6495C137.051 25.5735 137.149 25.5136 137.239 25.4698C137.329 25.423 137.387 25.3894 137.413 25.369C137.364 25.3398 137.301 25.3032 137.226 25.2594C137.153 25.2156 137.089 25.1571 137.034 25.0841C136.978 25.011 136.951 24.9161 136.951 24.7992C136.951 24.656 137.018 24.5245 137.151 24.4047C137.285 24.2849 137.483 24.1958 137.745 24.1373C137.48 24.0029 137.274 23.8247 137.125 23.6026C136.977 23.3805 136.903 23.1395 136.903 22.8794C136.903 22.5872 136.981 22.333 137.138 22.1168C137.298 21.9005 137.525 21.7354 137.819 21.6215C138.113 21.5046 138.462 21.4462 138.866 21.4462C139.16 21.4462 139.407 21.4812 139.608 21.5514C139.809 21.6186 139.995 21.715 140.167 21.8406C140.213 21.8202 140.286 21.7895 140.385 21.7486C140.487 21.7048 140.599 21.658 140.721 21.6083C140.843 21.5587 140.956 21.5119 141.061 21.4681C141.169 21.4213 141.255 21.3863 141.319 21.3629L141.314 22.1124L140.524 22.2614C140.568 22.3549 140.603 22.4572 140.629 22.5682C140.658 22.6793 140.673 22.783 140.673 22.8794C140.673 23.1453 140.603 23.3864 140.463 23.6026C140.327 23.8188 140.119 23.9912 139.839 24.1198C139.56 24.2484 139.211 24.3127 138.792 24.3127C138.757 24.3127 138.712 24.3127 138.657 24.3127C138.605 24.3097 138.559 24.3068 138.522 24.3039C138.213 24.3127 138.001 24.3477 137.885 24.4091C137.768 24.4675 137.71 24.5333 137.71 24.6063C137.71 24.6911 137.775 24.7495 137.906 24.7817C138.037 24.8138 138.26 24.8416 138.574 24.8649C138.687 24.8708 138.827 24.8781 138.993 24.8868C139.162 24.8956 139.348 24.9073 139.551 24.9219C140.026 24.9511 140.391 25.0724 140.647 25.2857C140.903 25.499 141.031 25.7868 141.031 26.1492C141.031 26.5612 140.847 26.8972 140.481 27.1573C140.114 27.4173 139.557 27.5474 138.81 27.5474ZM138.954 27.0258C139.37 27.0258 139.688 26.9629 139.909 26.8373C140.13 26.7117 140.241 26.5217 140.241 26.2675C140.241 26.0863 140.172 25.9388 140.036 25.8248C139.902 25.7079 139.697 25.6407 139.42 25.6232L138.155 25.5399C138.042 25.5341 137.924 25.5633 137.802 25.6276C137.679 25.6889 137.575 25.7751 137.487 25.8862C137.403 25.9972 137.361 26.1229 137.361 26.2631C137.361 26.5027 137.49 26.6897 137.749 26.8241C138.011 26.9586 138.413 27.0258 138.954 27.0258ZM138.814 23.7911C139.14 23.7911 139.402 23.7151 139.599 23.5632C139.8 23.4112 139.9 23.1862 139.9 22.8882C139.9 22.5814 139.8 22.3476 139.599 22.1869C139.402 22.0262 139.14 21.9458 138.814 21.9458C138.485 21.9458 138.219 22.0276 138.015 22.1913C137.815 22.352 137.714 22.5843 137.714 22.8882C137.714 23.1745 137.81 23.3966 138.002 23.5544C138.194 23.7122 138.465 23.7911 138.814 23.7911Z" fill="#F77761"/>
<path d="M142.767 23.9708C142.767 24.2571 142.814 24.5172 142.907 24.751C143.003 24.9818 143.147 25.1659 143.339 25.3032C143.533 25.4406 143.776 25.5092 144.067 25.5092C144.355 25.5092 144.603 25.442 144.809 25.3076C145.019 25.1732 145.152 24.9789 145.211 24.7247H145.974C145.919 25.0315 145.797 25.2901 145.608 25.5005C145.418 25.7109 145.19 25.8701 144.923 25.9782C144.655 26.0834 144.376 26.136 144.085 26.136C143.663 26.136 143.292 26.044 142.972 25.8599C142.652 25.6758 142.402 25.4114 142.222 25.0666C142.041 24.7218 141.951 24.3083 141.951 23.8262C141.951 23.3499 142.032 22.932 142.195 22.5726C142.358 22.2132 142.594 21.9327 142.902 21.7311C143.214 21.5294 143.587 21.4286 144.024 21.4286C144.448 21.4286 144.808 21.5207 145.101 21.7048C145.395 21.8888 145.618 22.1489 145.769 22.4849C145.923 22.8181 146 23.214 146 23.6727V23.9708H142.767ZM142.771 23.4229H145.224C145.224 23.1629 145.18 22.9291 145.093 22.7216C145.005 22.5112 144.872 22.3461 144.691 22.2263C144.514 22.1036 144.29 22.0423 144.019 22.0423C143.737 22.0423 143.503 22.1109 143.317 22.2483C143.134 22.3827 142.995 22.5565 142.902 22.7698C142.812 22.9802 142.768 23.1979 142.771 23.4229Z" fill="#F77761"/>
</g>
<defs>
<clipPath id="clip0_129_11551">
<rect width="146" height="29.8453" fill="white" transform="translate(0 0.578125)"/>
</clipPath>
</defs>
</svg>
