<svg width="30" height="30" viewBox="0 0 30 30" fill="none" xmlns="http://www.w3.org/2000/svg">
<g id="Icons / Book" clip-path="url(#clip0_121_2003)">
<g id="Group">
<path id="Vector" d="M12.7428 25.2607C12.3496 24.6045 11.6295 24.1973 10.8643 24.1973H4.69141C3.2377 24.1973 2.05469 23.0143 2.05469 21.5605V5.68164H0.882812C0.397656 5.68164 0.00390625 6.07539 0.00390625 6.56055V25.3105C0.00390625 25.7957 0.397656 26.1895 0.882812 26.1895H13.6926C13.3019 25.966 12.9749 25.6463 12.7428 25.2607ZM29.125 5.68164H27.9531V21.5605C27.9531 23.0143 26.7701 24.1973 25.3164 24.1973H19.1436C18.3783 24.1973 17.6582 24.6045 17.265 25.2607C17.0329 25.6463 16.7059 25.966 16.3152 26.1895H29.125C29.6102 26.1895 30.0039 25.7957 30.0039 25.3105V6.56055C30.0039 6.07539 29.6102 5.68164 29.125 5.68164Z" fill="white"/>
<path id="Vector_2" d="M11.2844 3.80859H4.69141C4.20625 3.80859 3.8125 4.20234 3.8125 4.6875V21.5625C3.8125 22.0477 4.20625 22.4414 4.69141 22.4414H10.8643C12.1662 22.4414 13.3949 23.0959 14.125 24.1641V6.68965C14.125 5.11406 12.86 3.81738 11.2844 3.80859ZM10.3164 17.2852H7.50391C7.01875 17.2852 6.625 16.8914 6.625 16.4062C6.625 15.9211 7.01875 15.5273 7.50391 15.5273H10.3164C10.8016 15.5273 11.1953 15.9211 11.1953 16.4062C11.1953 16.8914 10.8016 17.2852 10.3164 17.2852ZM10.3164 13.5352H7.50391C7.01875 13.5352 6.625 13.1414 6.625 12.6562C6.625 12.1711 7.01875 11.7773 7.50391 11.7773H10.3164C10.8016 11.7773 11.1953 12.1711 11.1953 12.6562C11.1953 13.1414 10.8016 13.5352 10.3164 13.5352ZM10.3164 9.78516H7.50391C7.01875 9.78516 6.625 9.39141 6.625 8.90625C6.625 8.42109 7.01875 8.02734 7.50391 8.02734H10.3164C10.8016 8.02734 11.1953 8.42109 11.1953 8.90625C11.1953 9.39141 10.8016 9.78516 10.3164 9.78516ZM19.1436 22.4414H25.3164C25.8016 22.4414 26.1953 22.0477 26.1953 21.5625V4.6875C26.1953 4.20234 25.8016 3.80859 25.3164 3.80859H18.7234C17.1479 3.81738 15.8828 5.11406 15.8828 6.68965V24.1641C16.6129 23.0959 17.8416 22.4414 19.1436 22.4414ZM19.6914 8.02734H22.5039C22.9891 8.02734 23.3828 8.42109 23.3828 8.90625C23.3828 9.39141 22.9891 9.78516 22.5039 9.78516H19.6914C19.2063 9.78516 18.8125 9.39141 18.8125 8.90625C18.8125 8.42109 19.2063 8.02734 19.6914 8.02734ZM19.6914 11.7773H22.5039C22.9891 11.7773 23.3828 12.1711 23.3828 12.6562C23.3828 13.1414 22.9891 13.5352 22.5039 13.5352H19.6914C19.2063 13.5352 18.8125 13.1414 18.8125 12.6562C18.8125 12.1711 19.2063 11.7773 19.6914 11.7773ZM19.6914 15.5273H22.5039C22.9891 15.5273 23.3828 15.9211 23.3828 16.4062C23.3828 16.8914 22.9891 17.2852 22.5039 17.2852H19.6914C19.2063 17.2852 18.8125 16.8914 18.8125 16.4062C18.8125 15.9211 19.2063 15.5273 19.6914 15.5273Z" fill="white"/>
</g>
</g>
<defs>
<clipPath id="clip0_121_2003">
<rect width="30" height="30" fill="white"/>
</clipPath>
</defs>
</svg>
