<svg width="26" height="27" viewBox="0 0 26 27" fill="none" xmlns="http://www.w3.org/2000/svg">
<g id="Icons" clip-path="url(#clip0_121_2103)">
<g id="Group">
<path id="Vector" d="M20.9475 18.7815C20.7555 18.322 20.293 18.0278 19.8519 17.8469L16.8694 16.4736L15.4365 15.2651L13.1341 17.5551H13.1323L14.126 24.1974C14.1296 24.2202 14.1237 24.2435 14.1101 24.2621L13.0712 25.6839C13.0631 25.6951 13.0524 25.7042 13.0401 25.7105C13.0277 25.7168 13.0141 25.7201 13.0002 25.7201C12.9864 25.7201 12.9727 25.7168 12.9604 25.7105C12.9481 25.7042 12.9374 25.6951 12.9293 25.6839L11.8905 24.2621C11.8768 24.2435 11.8711 24.2203 11.8745 24.1974L12.868 17.555H12.8665L10.5642 15.2651L9.13132 16.4736L6.14869 17.8469C5.70739 18.0278 5.27376 18.3026 5.05314 18.7815C5.05314 18.7815 1.81113 26.4999 3.56958 26.4999H22.4314C24.1896 26.5001 20.9475 18.7815 20.9475 18.7815ZM21.1547 8.19877C21.1767 8.19659 21.198 8.19006 21.2174 8.17956C21.2369 8.16905 21.254 8.15479 21.2679 8.13759C21.2817 8.12039 21.2921 8.10061 21.2982 8.07938C21.3043 8.05816 21.3062 8.03593 21.3037 8.01398C21.2703 7.7289 21.2368 7.4444 21.2037 7.15932L21.1342 6.56274C21.129 6.51981 21.1073 6.48057 21.0737 6.45336C21.0401 6.42614 20.9973 6.41308 20.9542 6.41695L20.8252 6.41713L20.8277 4.41457L20.8952 4.39004L21.1203 4.30877C21.2133 4.27515 21.2937 4.21368 21.3505 4.13274C21.4073 4.0518 21.4377 3.95532 21.4377 3.85644C21.4377 3.75756 21.4073 3.66107 21.3505 3.58013C21.2937 3.49919 21.2133 3.43773 21.1203 3.4041L13.1637 0.528675C13.058 0.490442 12.9423 0.490442 12.8366 0.528675L4.87995 3.4041C4.78696 3.43773 4.70659 3.49919 4.64979 3.58013C4.59298 3.66107 4.56251 3.75756 4.56251 3.85644C4.56251 3.95532 4.59298 4.0518 4.64979 4.13274C4.70659 4.21368 4.78696 4.27515 4.87995 4.30877L7.82131 5.37176C7.61368 6.02724 7.51918 6.77774 7.52767 7.61332C7.57943 12.3795 10.3462 15.2216 12.9063 15.2216C15.4364 15.2216 18.2332 12.3795 18.2847 7.61332C18.2932 6.80345 18.2039 6.07396 18.0097 5.43301L20.1484 4.66014L20.1529 6.41789L20.0237 6.41783C19.9805 6.41394 19.9376 6.42708 19.904 6.45445C19.8704 6.48181 19.8489 6.52122 19.8439 6.56427L19.6767 8.01562C19.6742 8.03752 19.6761 8.05968 19.6823 8.08083C19.6885 8.10198 19.6988 8.12169 19.7127 8.13881C19.7407 8.17342 19.7815 8.19561 19.8258 8.1993M12.9066 14.0642C10.673 14.0642 9.13179 11.4477 8.82088 8.83205C8.5334 6.41309 12.0317 6.30049 12.2349 7.7998C12.2975 8.26072 11.7682 8.75448 11.8282 8.94482C12.1243 9.88451 17.0259 5.87776 16.9924 8.83088C16.9688 10.9159 15.0348 14.0642 12.9066 14.0642Z" fill="#8F57F7"/>
</g>
</g>
<defs>
<clipPath id="clip0_121_2103">
<rect width="26" height="26" fill="white" transform="translate(0 0.5)"/>
</clipPath>
</defs>
</svg>
