<svg width="26" height="27" viewBox="0 0 26 27" fill="none" xmlns="http://www.w3.org/2000/svg">
<g id="Icons" clip-path="url(#clip0_121_2093)">
<g id="Group">
<path id="Vector" d="M22.2543 14.1134C22.1825 14.0851 20.473 13.4206 18.4314 13.2978C16.5151 13.1824 14.9361 13.5813 13.7625 14.4621V26.4886C14.617 25.1265 16.144 24.4978 18.3062 24.6204C20.1121 24.7227 21.6818 25.3293 21.6967 25.3351C21.8122 25.3806 21.9371 25.3971 22.0604 25.3833C22.1837 25.3694 22.3018 25.3257 22.4044 25.2558C22.507 25.1859 22.5909 25.092 22.6489 24.9823C22.7069 24.8726 22.7373 24.7504 22.7373 24.6263V14.8222C22.7373 14.6692 22.6912 14.5198 22.605 14.3934C22.5189 14.2669 22.3967 14.1694 22.2543 14.1134ZM20.2323 20.6874C20.1944 21.1064 19.8236 21.4153 19.405 21.3773C18.585 21.303 17.836 21.3336 17.1789 21.4682C16.5972 21.587 16.3229 21.085 16.2798 20.8747C16.1954 20.4626 16.4612 20.0601 16.8733 19.9757C17.6762 19.8113 18.5743 19.7724 19.5425 19.8601C19.9614 19.8981 20.2703 20.2685 20.2323 20.6874ZM20.2323 17.4194C20.1944 17.8384 19.8236 18.1472 19.405 18.1093C18.5859 18.0351 17.8369 18.0658 17.1788 18.2006C16.5971 18.3195 16.3228 17.8174 16.2798 17.6071C16.1954 17.1949 16.4611 16.7924 16.8733 16.708C17.6771 16.5435 18.5751 16.5045 19.5424 16.5921C19.9614 16.63 20.2703 17.0004 20.2323 17.4194ZM7.57018 13.2978C5.52852 13.4206 3.81902 14.0851 3.74727 14.1134C3.60489 14.1694 3.48267 14.2669 3.39653 14.3934C3.31039 14.5198 3.26433 14.6692 3.26434 14.8222V24.6263C3.26434 24.7504 3.29466 24.8727 3.35268 24.9824C3.41069 25.0921 3.49464 25.186 3.59721 25.2558C3.69978 25.3257 3.81787 25.3695 3.94121 25.3833C4.06455 25.3971 4.1894 25.3806 4.3049 25.3352C4.32023 25.3291 5.8587 24.7309 7.66174 24.6224C9.84137 24.4912 11.38 25.1191 12.2391 26.4886V14.4622C11.0654 13.5814 9.48621 13.1826 7.57018 13.2978ZM9.72178 20.8747C9.67872 21.085 9.4044 21.587 8.82275 21.4682C8.16559 21.3337 7.41662 21.303 6.5966 21.3773C6.17796 21.4153 5.80721 21.1065 5.76928 20.6874C5.73134 20.2685 6.0402 19.8981 6.45919 19.8601C7.42739 19.7724 8.32545 19.8113 9.12835 19.9757C9.54044 20.0601 9.80618 20.4626 9.72178 20.8747ZM9.72178 17.607C9.67872 17.8174 9.40445 18.3194 8.82275 18.2005C8.16468 18.0658 7.41566 18.0351 6.59655 18.1093C5.58794 18.1629 5.45768 16.72 6.45914 16.592C7.42642 16.5045 8.32444 16.5435 9.1283 16.708C9.54044 16.7924 9.80618 17.1949 9.72178 17.607ZM13.0008 6.96155C14.7854 6.96155 16.2372 5.50966 16.2372 3.72511C16.0745 -0.562607 9.92633 -0.56144 9.76429 3.72516C9.76434 5.50966 11.2162 6.96155 13.0008 6.96155ZM4.84191 9.00042C6.62652 9.00042 8.07835 7.54853 8.07835 5.76397C7.91565 1.47626 1.76751 1.47743 1.60547 5.76403C1.60547 7.54858 3.0573 9.00042 4.84191 9.00042ZM21.1597 9.00042C22.9443 9.00042 24.3961 7.54853 24.3961 5.76397C24.2334 1.47626 18.0852 1.47743 17.9232 5.76403C17.9232 7.54858 19.375 9.00042 21.1597 9.00042ZM17.8419 10.5135C17.8419 9.28951 17.1618 8.18949 16.0673 7.64278L15.8512 7.53482C14.2676 8.78876 11.7345 8.78881 10.1509 7.53528L9.93319 7.64415C8.83921 8.19167 8.1596 9.2916 8.1596 10.5148V11.7553C9.50871 11.7507 11.3715 11.9836 13.0007 13.1332C14.6299 11.9834 16.4923 11.7506 17.8419 11.7552V10.5135Z" fill="#22C55E"/>
<path id="Vector_2" d="M24.2253 9.68218L24.0093 9.57422C22.7666 10.5511 20.8326 10.8124 19.3521 10.1679C19.3604 10.2824 19.3646 10.3978 19.3646 10.5141V11.8556C21.2106 12.0834 22.6341 12.6266 22.811 12.6961C23.6912 13.0423 24.2599 13.8771 24.2599 14.8228V16.6985H25.2383C25.659 16.6985 26 16.3575 26 15.9368V12.5529C26 11.329 25.3199 10.2289 24.2253 9.68218ZM6.63538 10.5152C6.63538 10.3986 6.6397 10.2827 6.64803 10.1678C5.16755 10.8123 3.23421 10.5512 1.99123 9.57468L1.77354 9.68355C0.679605 10.231 0 11.331 0 12.5541V15.9368C0 16.3575 0.341047 16.6985 0.761719 16.6985H1.74012V14.8228C1.74012 13.8771 2.30882 13.0423 3.18896 12.6962C3.36588 12.6266 4.78938 12.0834 6.63538 11.8556V10.5152Z" fill="#22C55E"/>
</g>
</g>
<defs>
<clipPath id="clip0_121_2093">
<rect width="26" height="26" fill="white" transform="translate(0 0.5)"/>
</clipPath>
</defs>
</svg>
