<svg width="14" height="14" viewBox="0 0 14 14" fill="none" xmlns="http://www.w3.org/2000/svg">
<g clip-path="url(#clip0_124_1895)">
<path d="M2.50806 2.06445C2.50771 2.06445 2.50732 2.06445 2.50697 2.06445C2.38475 2.06445 2.26979 2.1121 2.18298 2.19869C2.09522 2.28623 2.04688 2.4028 2.04688 2.5269V9.46122C2.04688 9.71551 2.25456 9.92289 2.50989 9.92354C3.58629 9.92611 5.3897 10.1505 6.6338 11.4524V4.19542C6.6338 4.10922 6.61178 4.02825 6.57023 3.96124C5.54913 2.31682 3.5869 2.06698 2.50806 2.06445Z" fill="white"/>
<path d="M11.9384 9.46127V2.5269C11.9384 2.4028 11.8901 2.28623 11.8023 2.19869C11.7155 2.1121 11.6005 2.06445 11.4784 2.06445C11.478 2.06445 11.4776 2.06445 11.4773 2.06445C10.3985 2.06702 8.43623 2.31687 7.41509 3.96128C7.37354 4.02829 7.35156 4.10927 7.35156 4.19546V11.4524C8.59566 10.1505 10.3991 9.92611 11.4755 9.92354C11.7308 9.92289 11.9384 9.71551 11.9384 9.46127Z" fill="white"/>
<path d="M12.9913 3.66406H12.656V9.46167C12.656 10.1109 12.1271 10.6403 11.4768 10.6419C10.5638 10.6441 9.05837 10.8226 7.99219 11.8317C9.83615 11.3803 11.78 11.6737 12.8878 11.9262C13.0262 11.9577 13.1691 11.9252 13.2799 11.8368C13.3904 11.7487 13.4537 11.617 13.4537 11.4756V4.12642C13.4538 3.87149 13.2463 3.66406 12.9913 3.66406Z" fill="white"/>
<path d="M1.32892 9.46167V3.66406H0.993611C0.738716 3.66406 0.53125 3.87149 0.53125 4.12642V11.4755C0.53125 11.6169 0.594604 11.7486 0.705038 11.8367C0.815776 11.925 0.958583 11.9577 1.09713 11.9261C2.20495 11.6736 4.14885 11.3801 5.99273 11.8316C4.92659 10.8226 3.42116 10.6441 2.50814 10.6419C1.85794 10.6403 1.32892 10.1109 1.32892 9.46167Z" fill="white"/>
</g>
<defs>
<clipPath id="clip0_124_1895">
<rect width="12.9231" height="12.9231" fill="white" transform="translate(0.539062 0.539062)"/>
</clipPath>
</defs>
</svg>
