<svg width="26" height="27" viewBox="0 0 26 27" fill="none" xmlns="http://www.w3.org/2000/svg">
<g id="Icons" clip-path="url(#clip0_121_2112)">
<g id="Group">
<path id="Vector" d="M13 0.5C10.4798 0.5 8.42969 2.60087 8.42969 5.12109C8.42969 7.64132 10.4798 9.69141 13 9.69141C15.5202 9.69141 17.5703 7.64132 17.5703 5.12109C17.5703 2.60087 15.5202 0.5 13 0.5ZM14.5234 9.69141H11.4766C10.4021 9.69141 9.36391 9.96913 8.42004 10.4416C10.0232 10.8742 11.5326 11.4971 13 12.3394C14.4675 11.4971 15.9768 10.8742 17.58 10.4416C16.6361 9.96913 15.5979 9.69141 14.5234 9.69141ZM24.4766 14.2617C23.6352 14.2617 22.9531 14.9438 22.9531 15.7852V18.832C22.9531 19.6733 23.6352 20.3555 24.4766 20.3555C25.318 20.3555 26 19.6733 26 18.832V15.7852C26 14.9438 25.318 14.2617 24.4766 14.2617ZM1.52344 14.2617C0.682043 14.2617 0 14.9438 0 15.7852V18.832C0 19.6733 0.682043 20.3555 1.52344 20.3555C2.36483 20.3555 3.04688 19.6733 3.04688 18.832V15.7852C3.04688 14.9438 2.36483 14.2617 1.52344 14.2617Z" fill="#F77761"/>
<path id="Vector_2" d="M2.28516 11.2148C1.86413 11.2148 1.52344 11.5555 1.52344 11.9766V12.7383C3.20384 12.7383 4.57031 14.1048 4.57031 15.7852V18.832C4.57031 20.5124 3.20384 21.8789 1.52344 21.8789V22.6406C1.52344 23.0617 1.86413 23.4023 2.28516 23.4023C6.19029 23.4023 9.31277 24.6356 12.2383 26.5V13.6825C9.29957 11.9976 6.13961 11.2148 2.28516 11.2148ZM24.4766 12.7383V11.9766C24.4766 11.5555 24.1359 11.2148 23.7148 11.2148C19.8604 11.2148 16.7004 11.9976 13.7617 13.6825V26.5C16.6872 24.6356 19.8097 23.4023 23.7148 23.4023C24.1359 23.4023 24.4766 23.0617 24.4766 22.6406V21.8789C22.7962 21.8789 21.4297 20.5124 21.4297 18.832V15.7852C21.4297 14.1048 22.7962 12.7383 24.4766 12.7383Z" fill="#F77761"/>
</g>
</g>
<defs>
<clipPath id="clip0_121_2112">
<rect width="26" height="26" fill="white" transform="translate(0 0.5)"/>
</clipPath>
</defs>
</svg>
